<!-- sample rectangle -->
<svg width="200" height="200" xmlns="http://www.w3.org/2000/svg">


<g id="SvgjsG1626" featurekey="symbolContainer" transform="matrix(3,0,0,3,20,20)" 
fill="#000000">
<path xmlns="http://www.w3.org/2000/svg" d="M24.95 0a25 25 0 1 0 25 25 25 25 0 0 0-25-25zm0 46.91a22 22 0 1 1 22-22 22 22 0 0 1-22 21.99z"></path><path xmlns="http://www.w3.org/2000/svg" d="M24.95 3.65a21.3 21.3 0 1 0 21.3 21.3 21.33 21.33 0 0 0-21.3-21.3z"></path></g>

<g id="SvgjsG1627" featurekey="monogramFeature-0" transform="matrix(1.3,0,0,1.3,65,50)" fill="#ffffff">
  <path d="M41.64 62.28 c-0.12 0 -0.18 -0.06 -0.24 -0.12 l-0.06 -0.18 c0 -0.06 -0.12 -0.06 -0.3 -0.06 l-0.12 0 c-0.12 0 -0.12 -0.06 -0.18 -0.12 l-0.18 -0.24 l-0.18 0 c-0.3 0 -0.48 -0.12 -0.6 -0.3 c-0.12 -0.12 -0.36 -0.3 -0.66 -0.3 c-0.24 -0.06 -0.66 -0.24 -0.84 -0.36 c-0.3 -0.24 -0.36 -0.3 -0.54 -0.72 c-0.06 -0.12 -0.18 -0.18 -0.24 -0.18 l-0.06 0 c-0.06 0 -0.12 -0.06 -0.18 -0.18 s-0.12 -0.24 -0.18 -0.24 c-0.42 -0.3 -0.9 -1.44 -0.9 -1.86 c0 -0.12 0 -0.18 0.06 -0.18 l0.06 -0.06 l-0.06 -0.06 c-0.06 -0.12 -0.12 -0.3 -0.12 -0.48 c0 -0.3 0.06 -0.54 0.18 -0.54 c0.06 0 0.12 -0.06 0.12 -0.18 l-0.06 -0.3 c0 -0.06 0.06 -0.12 0.12 -0.12 l0.06 -0.06 l-0.06 -0.06 c-0.06 -0.06 -0.06 -0.18 -0.06 -0.36 l0.06 -1.2 c0 -0.42 -0.06 -0.78 -0.12 -0.84 l0 -0.06 c0 -0.12 0.06 -0.24 0.12 -0.36 s0.12 -0.3 0.12 -0.42 l0 -0.06 c-0.06 -0.12 -0.12 -0.36 -0.12 -0.6 s0.06 -0.42 0.12 -0.42 s0.06 -0.12 0.06 -0.3 l0 -0.24 c0 -0.3 0 -0.6 0.06 -0.66 l-0.06 -0.42 c-0.06 -0.18 -0.06 -0.48 -0.06 -0.72 c0 -0.3 0 -0.54 0.12 -0.54 l0.06 -0.06 l-0.18 -0.24 c0 -0.06 0.06 -0.12 0.12 -0.18 s0.18 -0.66 0.18 -1.14 l-0.06 -0.54 l0.12 -0.54 l0.06 -0.96 c0 -0.42 0.12 -1.08 0.42 -1.8 c0.12 -0.24 0.12 -0.48 0.12 -0.6 l-0.06 -0.18 l0.12 -0.24 l-0.12 -0.24 l0.12 -0.24 l-0.06 -0.24 c-0.06 -0.12 -0.06 -0.18 -0.06 -0.3 c0 -0.18 0 -0.42 0.12 -0.9 c0 -0.3 0 -0.48 -0.06 -0.48 l0 -0.06 l0.12 -0.3 c0.12 -0.18 0.12 -0.54 0.12 -0.78 l0 -0.18 c0 -0.12 0 -0.18 0.06 -0.18 l0.12 0 l-0.06 -0.06 l-0.06 -0.18 c0 -0.18 0.06 -0.36 0.12 -0.48 l0.12 -0.48 l-0.12 -0.42 l-0.12 -0.24 c0 -0.12 0.06 -0.12 0.18 -0.18 c0.06 0 0.12 -0.06 0.12 -0.12 l0 -0.06 c-0.06 -0.06 -0.06 -0.18 -0.06 -0.36 l0 -0.78 l-0.06 -0.12 l0.06 -0.06 c0.06 0 0.18 -0.24 0.18 -0.6 c0.06 -0.24 0.18 -0.48 0.24 -0.48 l0.06 0 l-0.12 -0.24 l-0.06 -0.48 l0.24 -2.22 c0 -0.36 0.06 -0.78 0.12 -0.84 c0 -0.12 0 -0.36 0.06 -0.54 c0 -0.18 0.06 -0.96 0.18 -1.8 c0.06 -0.6 0.12 -1.2 0.12 -1.62 l0 -0.3 c0 -0.24 0 -0.72 0.06 -1.02 l0.12 -0.48 l-0.12 -0.3 c0 -0.06 0.06 -0.24 0.18 -0.42 l0.12 -0.36 c0 -0.06 0 -0.06 -0.06 -0.06 s-0.12 -0.06 -0.12 -0.12 l0.12 -0.24 l0.06 -0.6 c-0.06 -0.18 -0.06 -0.36 -0.06 -0.42 c0.06 -0.06 0.06 -0.18 0.06 -0.36 l-0.06 -0.48 c0 -0.36 0.12 -0.72 0.18 -0.72 l0.18 0 l-0.18 -0.3 l0.12 -0.06 c0.06 0 0.12 -0.12 0.12 -0.3 l-0.12 -1.32 l0.06 -0.48 l0 -0.6 c0 -0.84 -0.06 -2.16 -0.12 -2.22 c0 0 -0.12 0.06 -0.18 0.24 c-0.06 0.12 -0.18 0.18 -0.36 0.18 l-0.12 0 c-0.12 0 -0.24 0.06 -0.36 0.18 s-0.24 0.24 -0.3 0.24 s-0.12 0.24 -0.12 0.54 c0 0.24 -0.12 0.54 -0.24 0.6 c-0.12 0 -0.18 0.12 -0.18 0.24 l0 0.12 c0 0.3 -0.24 0.78 -0.48 0.96 l-0.18 0.12 l0 -0.18 c0.06 -0.18 0.18 -0.36 0.3 -0.48 s0.18 -0.24 0.18 -0.3 s-0.06 -0.06 -0.12 -0.06 s-0.12 0 -0.24 0.12 s-0.36 0.24 -0.48 0.24 l-0.18 0 l0.18 0.12 c0.12 0.06 0.18 0.06 0.18 0.12 s-0.12 0.18 -0.42 0.42 l-0.24 0.24 l0.3 0 c0.12 0 0.18 0.06 0.18 0.18 s-0.06 0.3 -0.18 0.48 s-0.24 0.42 -0.24 0.54 l0 0.06 c0 0.06 -0.06 0.12 -0.12 0.12 c-0.18 0 -0.36 0.24 -0.36 0.54 l0.12 0.42 l-0.36 -0.24 c-0.06 0 -0.12 0.12 -0.24 0.3 c-0.06 0.18 -0.12 0.36 -0.12 0.54 l0 0.24 c0 0.06 -0.06 0.06 -0.3 0.06 c-0.06 0 -0.24 0.06 -0.42 0.18 s-0.42 0.3 -0.54 0.3 l-0.18 0.12 l0.3 0.12 c0.3 0.12 0.42 0.24 0.42 0.42 c0 0.12 -0.06 0.24 -0.24 0.36 c-0.12 0.18 -0.3 0.36 -0.3 0.48 l-0.18 0.06 l-0.18 0 c-0.06 0 -0.12 0 -0.12 0.12 l0.06 0.3 c0 0.18 -0.06 0.36 -0.36 0.48 c-0.3 0.18 -0.42 0.3 -0.42 0.48 l0 0.06 c0.06 0.12 0.12 0.18 0.18 0.18 l0.06 0 c0.06 -0.06 0.06 -0.18 0.06 -0.3 l-0.06 -0.12 l0.12 0 c0.12 0.06 0.3 0.54 0.3 0.72 l-0.6 -0.12 c-0.18 0 -0.3 0.06 -0.48 0.18 c-0.18 0.18 -0.36 0.24 -0.42 0.24 l-0.06 0 l-0.12 0.06 c0 0.12 0.12 0.3 0.24 0.42 l0.12 0.12 l0 -0.06 l-0.06 -0.24 l0.12 -0.06 l0.12 0.06 l0 -0.24 c0.06 0 0.24 0.24 0.36 0.54 l0.12 0.3 l-0.12 -0.12 l-0.18 -0.12 c-0.06 0 -0.06 0.06 -0.12 0.18 c-0.06 0.18 -0.18 0.48 -0.36 0.78 l-0.18 0.36 c0 0.06 0 0.06 0.06 0.06 l0.06 0.06 l-0.06 0.18 c0 0.06 0 0.24 0.06 0.3 l0.06 0.06 l-0.12 -0.06 c-0.12 0 -0.24 0.18 -0.36 0.36 c-0.12 0.3 -0.18 0.42 -0.3 0.42 c0 0 -0.06 -0.06 -0.06 -0.24 c0 -0.12 0 -0.18 -0.06 -0.18 l-0.12 0.24 c-0.12 0.12 -0.3 0.3 -0.42 0.36 c-0.06 0.06 -0.12 0.12 -0.12 0.18 l0.06 0.18 c0 0.12 -0.06 0.36 -0.18 0.48 l-0.18 0.48 l0 0.06 l-0.12 0.48 c-0.06 0.12 -0.12 0.3 -0.12 0.42 l-0.12 0.48 c-0.06 0.12 -0.12 0.24 -0.12 0.36 c0 0.18 0.12 0.36 0.42 0.42 c0.18 0.06 0.24 0.06 0.24 0.12 l-0.06 0.12 l-0.12 0.06 l-0.24 -0.18 c-0.18 0 -0.48 0.66 -0.48 1.02 l0.06 0.48 c0 0.18 -0.06 0.42 -0.12 0.54 l-0.18 0.42 l-0.18 -0.3 l-0.06 -0.24 l0.06 -0.06 l0.18 0.12 c0.06 0 0.06 -0.06 0.12 -0.24 l0.06 -0.24 l-0.06 -0.18 c-0.06 0 -0.12 0 -0.12 0.12 l-0.3 0.24 c-0.06 0 -0.12 0.12 -0.12 0.18 l0 0.18 c0 0.06 -0.06 0.12 -0.12 0.12 s-0.06 0.06 -0.06 0.24 l0.06 0.72 c0 0.12 0 0.18 -0.06 0.18 l-0.12 -0.18 c-0.06 -0.12 -0.12 -0.18 -0.18 -0.18 c-0.12 0 -0.18 0.12 -0.18 0.24 l0 0.24 c0 0.12 -0.06 0.24 -0.12 0.3 l-0.06 0.3 l0.12 0.66 c0 0.12 -0.06 0.12 -0.24 0.18 c-0.18 0 -0.36 0.06 -0.36 0.12 s0 0.06 0.12 0.06 s0.24 0.06 0.24 0.18 s-0.12 0.3 -0.3 0.42 s-0.3 0.24 -0.3 0.36 l0.06 0.3 l-0.06 0.06 l-0.12 0.06 l0.06 0.06 c0.12 0.12 0.18 0.6 0.18 0.9 c0 0.18 0 0.3 -0.06 0.3 s-0.18 0.18 -0.18 0.48 c-0.06 0.3 -0.24 0.54 -0.36 0.66 c-0.24 0.06 -0.42 0.48 -0.42 0.84 c0 0.18 0.06 0.3 0.12 0.42 l0.12 0.12 l-0.18 -0.06 c-0.06 0 -0.12 0.06 -0.18 0.12 l-0.06 0.24 c0 0.06 0 0.12 0.06 0.12 l0.12 0 s0.06 0.06 0.06 0.18 l0 0.12 c0 0.06 -0.06 0.12 -0.12 0.12 l-0.12 0 c-0.12 0 -0.36 0.3 -0.36 0.54 l0 0.12 c0 0.06 -0.06 0.12 -0.12 0.18 c-0.12 0.06 -0.12 0.18 -0.12 0.3 c0.06 0.12 0.06 0.42 0.06 0.66 l-0.06 0.3 l0.06 0.06 l0.06 -0.12 c0.06 -0.12 0.12 -0.24 0.18 -0.24 s0.06 0.06 0.06 0.18 c0 0.18 -0.12 0.66 -0.24 0.78 c-0.06 0.06 -0.12 0.18 -0.12 0.3 l0.12 0.3 c0 0.06 -0.06 0.12 -0.12 0.12 s-0.06 0.06 -0.06 0.42 l0 0.66 s0 0.18 0.06 0.3 l0.06 0.24 c0 0.42 -0.24 0.84 -0.42 0.84 c-0.06 0 -0.12 0.06 -0.12 0.12 l0 0.12 c0 0.12 -0.3 0.3 -0.6 0.54 c-0.42 0.24 -0.9 0.36 -1.32 0.36 c-0.36 0 -0.72 -0.06 -1.02 -0.18 l-0.12 0 c-0.06 0 -0.12 0.06 -0.12 0.24 s0.12 0.48 0.3 0.6 s0.3 0.3 0.3 0.48 s-0.06 0.3 -0.24 0.36 l-0.12 0 c-0.3 0 -0.6 -0.3 -0.78 -0.84 l-0.12 -0.3 l-0.06 0 l0.06 0.36 c0 0.3 0.06 0.54 0.12 0.6 l0.06 0.06 l-0.12 0.06 c-0.18 0 -0.24 -0.06 -0.24 -0.3 c-0.06 -0.12 -0.06 -0.18 -0.12 -0.18 l-0.24 0.06 c-0.06 0 -0.12 -0.06 -0.12 -0.12 c-0.06 -0.06 -0.24 -0.12 -0.48 -0.12 c-0.48 -0.06 -0.66 -0.18 -0.9 -0.72 c-0.12 -0.24 -0.36 -0.48 -0.6 -0.66 c-0.18 -0.12 -0.42 -0.3 -0.48 -0.42 c0 -0.12 -0.12 -0.3 -0.24 -0.36 c-0.12 0 -0.24 -0.24 -0.24 -0.42 s-0.06 -0.24 -0.12 -0.24 l-0.12 0 c-0.06 0 -0.12 -0.18 -0.12 -0.42 c0 -0.18 0.06 -0.42 0.12 -0.54 l0.06 -0.18 c0 -0.36 -0.24 -0.9 -0.42 -1.02 c-0.12 0 -0.18 -0.18 -0.18 -0.54 c0 -0.24 0 -0.54 -0.12 -0.66 l-0.06 -0.12 l0.24 -0.12 l-0.18 -0.36 c0.06 0 0.12 -0.24 0.18 -0.42 c0 -0.42 -0.06 -0.48 -0.24 -0.72 l-0.18 -0.12 l0.06 0 l0.36 -0.06 l0.06 -0.06 c0 -0.06 -0.06 -0.06 -0.24 -0.06 c-0.24 0 -0.36 -0.06 -0.36 -0.18 s0.06 -0.24 0.18 -0.36 s0.18 -0.18 0.18 -0.3 s-0.06 -0.24 -0.12 -0.36 c-0.12 -0.12 -0.12 -0.24 -0.12 -0.3 s0 -0.12 0.06 -0.12 l0.06 -0.06 c0 -0.12 -0.06 -0.3 -0.24 -0.72 l-0.18 -0.6 l0.12 0.06 l0.06 -0.12 c0 -0.18 0.18 -0.24 0.36 -0.24 s0.3 -0.06 0.3 -0.12 l0 -0.06 l-0.18 -0.06 l-0.12 0 c-0.18 0 -0.3 -0.06 -0.42 -0.24 l-0.12 -0.24 l0.06 -0.06 l0 -0.12 c0 -0.3 -0.18 -0.96 -0.36 -1.02 l-0.06 -0.06 l0.12 -0.06 c0.12 0 0.18 -0.06 0.18 -0.3 l-0.06 -0.42 c-0.06 -0.42 -0.12 -0.84 -0.18 -0.96 l-0.06 -0.24 l0.12 -0.3 l-0.12 -0.54 l0.24 -0.3 l-0.06 -0.12 c-0.06 -0.06 -0.12 -0.06 -0.24 -0.06 l-0.18 0.06 c-0.06 0 -0.12 -0.06 -0.12 -0.12 l0.12 -0.3 l0.06 -0.3 l-0.12 -0.6 l0.06 -0.06 c0.06 0 0.12 -0.42 0.12 -0.84 c0 -0.24 0 -0.48 -0.06 -0.6 l-0.06 -0.24 l0.18 -0.42 l-0.06 -0.06 c-0.12 0 -0.24 -0.3 -0.24 -0.54 l0.06 -0.3 l-0.06 -0.42 c-0.06 -0.12 -0.12 -0.66 -0.18 -1.2 s-0.12 -1.14 -0.24 -1.32 l-0.06 -0.3 l0.06 -0.12 c0.06 0 0.06 -0.06 0.06 -0.18 s-0.06 -0.42 -0.18 -0.48 l-0.12 -0.12 l0.06 -0.12 c0 -0.12 0 -0.3 -0.12 -0.42 l-0.06 -0.18 l0.06 -0.12 c0.06 -0.06 0.12 -0.18 0.12 -0.3 l-0.24 -1.26 l0.06 0 l0.06 -0.18 l-0.24 -1.14 c-0.12 -0.42 -0.18 -0.84 -0.18 -1.08 l0 -0.12 c0 -0.24 -0.06 -0.66 -0.18 -1.02 c-0.12 -0.48 -0.24 -0.9 -0.24 -1.26 c0 -0.24 0.06 -0.48 0.18 -0.54 l0.06 -0.18 l0 -0.06 c0 -0.06 0 -0.06 -0.06 -0.06 l-0.18 0.06 c-0.06 0 -0.12 -0.12 -0.12 -0.3 l0.12 -0.42 c0.06 -0.12 0.06 -0.18 0.06 -0.3 s0 -0.24 -0.12 -0.42 c-0.06 -0.18 -0.12 -0.24 -0.12 -0.36 c0 -0.06 0.06 -0.12 0.12 -0.12 c0.06 -0.06 0.06 -0.12 0.06 -0.24 s0 -0.3 -0.12 -0.6 c-0.18 -0.42 -0.36 -1.38 -0.42 -2.1 c-0.18 -1.62 -0.12 -1.56 -0.48 -1.62 l-0.18 -0.06 l0.12 -0.06 c0.12 0 0.18 -0.06 0.18 -0.18 l0 -0.06 c-0.06 -0.12 -0.12 -0.18 -0.18 -0.18 c-0.12 0 -0.18 0.18 -0.24 0.42 c-0.06 0.18 -0.12 0.3 -0.18 0.3 s-0.06 0 -0.06 0.06 l0 0.06 c0 0.06 0 0.18 -0.06 0.24 l-0.06 0.06 l0 -0.18 c0 -0.06 0 -0.06 -0.06 -0.06 l-0.06 0 c-0.06 0 -0.12 0.06 -0.12 0.12 l0.06 0.18 l0.06 0.24 c0 0.24 -0.12 0.48 -0.3 0.48 l-0.18 0 l0.12 0.24 l-0.12 0.18 c-0.18 0.12 -0.3 0.24 -0.3 0.36 l-0.06 0.78 c-0.06 0.3 -0.24 0.54 -0.36 0.54 c-0.12 0.06 -0.18 0.12 -0.18 0.24 l0 0.18 c0 0.06 0 0.12 -0.06 0.12 l-0.06 0 c-0.06 0 -0.18 0.24 -0.24 0.54 c0 0.3 -0.24 0.84 -0.42 1.08 c-0.12 0.24 -0.24 0.48 -0.24 0.66 l0.06 0.12 l-0.06 0 c-0.18 0 -0.3 0.18 -0.3 0.36 l0 0.18 c0 0.3 -0.18 0.66 -0.36 0.66 c-0.12 0 -0.24 0.72 -0.24 1.2 l0.06 0.42 l0.12 0.12 l-0.12 -0.06 c-0.18 0 -0.3 0.3 -0.3 0.72 c0 0.18 0 0.3 0.06 0.3 l0.06 -0.06 l-0.12 0.3 c-0.18 0.24 -0.3 0.54 -0.3 0.84 l0.06 0.42 l0.06 0.18 l-0.06 0.12 c-0.06 0 -0.12 0.24 -0.12 0.48 l0 0.36 c0 0.18 -0.3 0.72 -0.42 0.72 s-0.18 0.18 -0.18 0.36 l0 0.54 c0 0.12 -0.06 0.3 -0.18 0.42 l-0.06 0.24 c0 0.12 0 0.12 0.06 0.12 s0.12 -0.06 0.18 -0.18 l0.18 -0.24 c0.06 0 0.06 0.12 0.12 0.3 c0 0.18 -0.12 0.36 -0.3 0.42 c-0.12 0.12 -0.24 0.3 -0.24 0.42 l-0.06 0.24 l-0.06 0 c-0.18 0 -0.42 0.72 -0.42 1.44 l0 0.24 c0 0.12 0 0.3 -0.06 0.3 s-0.12 0.06 -0.12 0.18 l0 0.18 c0.06 0 0.12 -0.06 0.18 -0.12 l0.12 -0.12 l-0.12 0.24 l-0.06 0.6 c0 0.12 -0.06 0.24 -0.12 0.3 l-0.06 0.06 l0.24 0.18 c0 0.06 -0.06 0.06 -0.18 0.06 s-0.24 0.06 -0.24 0.12 l0 0.06 c0.12 0.24 0.24 0.66 0.24 0.78 l0 0.06 l-0.06 -0.06 c-0.06 -0.12 -0.12 -0.18 -0.18 -0.18 l-0.12 0.06 l-0.06 0.18 c0 0.06 0.06 0.12 0.24 0.18 l0.24 0.18 c0 0.06 -0.06 0.12 -0.18 0.12 c-0.24 0.12 -0.42 0.42 -0.42 0.6 l0 0.06 l0.12 0.12 l0.12 -0.06 l-0.12 0.18 c-0.06 0.06 -0.06 0.18 -0.06 0.3 l0.06 0.36 l0.12 0.3 c0 0.06 0 0.06 -0.06 0.06 s-0.06 0.06 -0.06 0.12 l0 0.24 c0 0.06 -0.06 0.06 -0.18 0.06 l-0.12 0 l-0.06 0.06 l0.06 0.12 c0.06 0.18 0.18 0.3 0.24 0.3 s0.12 0.06 0.12 0.12 c0 0.12 -0.12 0.12 -0.3 0.12 l-0.06 0 c-0.12 0 -0.18 0.06 -0.18 0.18 l0 0.42 l0.12 -0.24 c0.06 -0.06 0.06 -0.12 0.12 -0.12 l0.06 0 c0 0.06 -0.06 0.24 -0.18 0.42 c-0.12 0.12 -0.18 0.36 -0.18 0.48 l0 0.6 c0 0.12 0.06 0.18 0.12 0.18 l0.06 0.06 l-0.18 0 c-0.18 0 -0.3 0.12 -0.3 0.3 l0.18 0.48 l-0.06 0.3 c-0.06 0.12 -0.06 0.24 -0.06 0.3 c0 0.12 0 0.18 0.06 0.3 l0.12 0.18 l-0.12 0 c-0.06 0 -0.18 0.06 -0.24 0.18 c-0.06 0.06 -0.06 0.18 -0.06 0.3 c0 0.24 0.06 0.54 0.18 0.54 l0.12 -0.06 l-0.12 0.36 l0.06 0.3 c0 0.06 0 0.12 -0.06 0.12 l-0.12 0 l0.06 0.42 c0 0.12 0 0.3 -0.06 0.42 l-0.06 0.18 l0.18 -0.06 l0.06 0.06 l0 0.12 c0 0.12 -0.06 0.3 -0.12 0.3 l-0.06 -0.06 c-0.06 0 -0.06 0.06 -0.12 0.18 l-0.06 0.3 c0 0.12 0 0.18 0.06 0.18 l0.06 -0.06 c0.06 0 0.12 0.12 0.18 0.3 c0 0.24 -0.06 0.48 -0.12 0.54 s-0.12 0.12 -0.12 0.18 l0.12 0.3 l0.3 0.42 c0 0.06 -0.06 0.06 -0.12 0.06 c-0.18 0 -0.3 0.18 -0.3 0.48 l0.12 0.78 c0 0.24 -0.06 0.36 -0.18 0.36 l-0.18 0 l0.24 0.24 c0.18 0.12 0.3 0.24 0.3 0.3 l-0.06 0 c-0.12 0 -0.18 0.18 -0.18 0.36 s-0.06 0.36 -0.12 0.36 l-0.06 0.12 l0.06 0.3 c0.06 0.12 0.06 0.24 0.06 0.36 l-0.06 0.42 c-0.06 0.12 -0.12 0.24 -0.12 0.42 l0.06 0.3 c0.06 0.18 0.12 0.54 0.12 0.78 l0 0.48 l0.06 0.24 l-0.12 0.54 l0.06 0.48 c0 0.06 0 0.18 -0.06 0.18 s-0.12 0.06 -0.12 0.18 l0.06 0.24 c0.06 0.24 0.18 0.42 0.3 0.42 c0.06 0 0.12 0.06 0.18 0.18 c0 0.06 0 0.06 -0.06 0.06 l-0.12 0 l-0.06 0.18 c0 0.18 0.06 0.48 0.18 0.6 l0.06 0.06 l-0.06 0.06 c-0.06 0 -0.12 0.24 -0.12 0.66 c0 0.48 0.06 1.2 0.18 1.74 c0.06 0.3 0.12 0.84 0.12 1.26 l0 0.36 c0 0.36 -0.06 0.42 -0.42 0.54 c-0.3 0.12 -0.72 0.18 -0.96 0.18 s-0.48 -0.06 -0.48 -0.12 c-0.06 -0.06 -0.36 -0.3 -0.78 -0.48 c-0.42 -0.24 -0.72 -0.54 -0.78 -0.66 c-0.06 -0.18 -0.24 -0.3 -0.42 -0.36 s-0.48 -0.24 -0.72 -0.42 c-0.42 -0.3 -0.42 -0.42 -0.6 -1.2 l-0.18 -2.04 c0 -0.72 0 -1.38 -0.06 -1.56 c0 -0.12 0 -0.24 0.12 -0.24 l0.06 -0.06 l-0.12 -0.42 c-0.06 -0.3 -0.12 -0.78 -0.12 -1.2 c0 -0.36 0 -0.66 0.12 -0.66 l0.06 0 l-0.12 -0.24 c-0.06 -0.12 -0.06 -0.18 -0.06 -0.3 s0 -0.18 0.12 -0.3 l0.12 -0.18 c0 -0.06 0 -0.06 -0.06 -0.06 c-0.12 0 -0.18 -0.12 -0.18 -0.66 c0 -0.3 0 -0.42 -0.06 -0.6 l0.06 -0.12 l0.24 0.12 l-0.06 -0.12 c-0.12 -0.12 -0.18 -0.42 -0.18 -0.66 c0 -0.3 0.06 -0.54 0.18 -0.6 l0.12 -0.12 l-0.12 -0.06 c-0.12 -0.06 -0.24 -0.48 -0.24 -0.84 c0 -0.18 0.06 -0.42 0.12 -0.48 s0.06 -0.3 0.06 -0.6 l-0.06 -0.36 l0.06 -0.36 c0 -0.12 -0.06 -0.24 -0.12 -0.3 l-0.06 -0.12 l0.36 0.12 l-0.06 -0.18 c-0.06 -0.06 -0.06 -0.3 -0.06 -0.6 l0 -1.14 l-0.06 -0.72 l0.06 -0.72 c0.06 -0.06 0.12 -0.12 0.18 -0.12 l0.06 0 l-0.12 -0.36 c-0.18 -0.3 -0.24 -0.42 -0.24 -0.54 l0 -0.12 l0.06 -0.06 c0.06 0 0.06 0.06 0.06 0.18 s0.06 0.18 0.18 0.18 l0.12 0 c0.12 0 0.18 -0.06 0.18 -0.12 c0 -0.12 -0.06 -0.24 -0.24 -0.3 c-0.12 -0.06 -0.12 -0.18 -0.12 -0.36 c0.06 -0.12 0.12 -0.18 0.18 -0.18 l0.18 0 l-0.12 -0.18 c-0.06 -0.12 -0.06 -0.3 -0.06 -0.54 c0 -0.42 0.06 -1.02 0.24 -1.08 c0.24 -0.06 0.36 -0.24 0.36 -0.42 l-0.06 -0.12 l-0.06 0 c-0.06 0 -0.12 0.06 -0.12 0.18 l-0.06 0.12 l-0.06 0 c-0.06 0 -0.06 -0.12 -0.06 -0.24 c0 -0.54 0.24 -1.68 0.42 -1.86 c0.12 -0.06 0.18 -0.18 0.18 -0.3 c0 -0.06 -0.06 -0.12 -0.12 -0.12 l-0.12 0.12 l-0.06 -0.06 l0 -0.06 c0 -0.48 0.48 -4.02 0.66 -4.92 c0.12 -0.6 0.24 -0.96 0.3 -0.96 l0 0.18 c0 0.12 0 0.24 0.06 0.24 l0.18 -0.24 l0.06 -0.24 c0 -0.06 0 -0.06 -0.12 -0.06 c-0.12 -0.06 -0.24 -0.12 -0.24 -0.24 c0 -0.06 0.06 -0.12 0.12 -0.12 l0.06 0 c0.06 0 0.12 0 0.12 -0.06 l-0.06 -0.06 l-0.06 -0.24 c0 -0.54 0.3 -1.68 0.42 -1.68 l0.06 0 l-0.12 -0.42 c0 -0.06 0 -0.12 0.12 -0.12 c0.06 0 0.12 -0.06 0.12 -0.12 l-0.06 -0.3 c0 -0.06 0.06 -0.12 0.12 -0.12 l0.06 -0.06 l-0.12 -0.24 l0.36 0.06 l-0.12 -0.42 c0 -0.36 0.24 -0.78 0.48 -0.78 l0 -0.06 l-0.12 -0.3 c-0.12 -0.24 -0.18 -0.42 -0.18 -0.54 c0 -0.18 0.06 -0.24 0.18 -0.24 c0.06 0 0.12 -0.12 0.12 -0.24 l-0.06 -0.36 c0 -0.36 0.24 -1.02 0.36 -1.02 l0.06 -0.06 l-0.06 -0.3 l0.18 0.06 l0.12 0.06 l0 -0.06 l-0.18 -0.6 c0 -0.12 0.06 -0.18 0.12 -0.24 c0.06 -0.12 0.12 -0.3 0.12 -0.42 s0.06 -0.36 0.24 -0.54 c0.06 -0.12 0.12 -0.24 0.12 -0.36 l-0.06 -0.18 c0 -0.18 0.3 -0.48 0.48 -0.48 l0.12 -0.06 l-0.12 -0.06 c-0.06 -0.06 -0.12 -0.18 -0.12 -0.36 c0 -0.48 0.3 -1.38 0.54 -1.38 l0.12 0 l-0.12 -0.24 l0.12 -0.24 c0.06 -0.06 0.06 -0.12 0.06 -0.24 l0 -0.18 c0 -0.24 0.18 -0.42 0.6 -0.48 l0.42 -0.06 c0 -0.06 -0.06 -0.12 -0.18 -0.24 l-0.3 -0.12 l-0.12 0 c-0.06 0 -0.06 0 -0.06 -0.06 l0.24 -0.6 c0.12 -0.24 0.18 -0.54 0.18 -0.6 s0.12 -0.24 0.3 -0.3 s0.3 -0.18 0.3 -0.24 l-0.12 -0.3 c0 -0.6 0.72 -2.22 1.08 -2.22 l0.06 0 c0.06 0 0.12 -0.12 0.12 -0.36 c0 -0.54 1.62 -3.12 2.22 -3.54 l0.48 -0.18 l0.84 0.12 c0.54 0.12 1.02 0.24 1.08 0.3 l0.6 0.24 l0.84 0.42 c0.42 0.36 1.5 1.62 1.62 1.86 c0 0.12 0.12 0.18 0.18 0.18 c0.42 0 1.2 1.68 1.62 3.48 l0.3 1.32 l-0.06 0.18 l-0.12 -0.06 c-0.12 0 -0.18 0 -0.18 0.06 l0 0.06 c0 0.06 0.12 0.12 0.18 0.12 l0.06 0 c0.12 0 0.12 0.06 0.18 0.12 l0.12 0.48 c0 0.12 -0.06 0.12 -0.12 0.12 s-0.12 -0.06 -0.12 -0.12 s-0.06 -0.18 -0.18 -0.18 s-0.18 0.06 -0.18 0.12 s0.12 0.18 0.36 0.3 c0.36 0.18 0.36 0.24 0.42 0.78 c0 0.54 0.06 1.14 0.3 2.58 l0 0.18 c0 0.12 -0.06 0.24 -0.12 0.24 s-0.12 -0.06 -0.18 -0.18 c-0.06 -0.18 -0.18 -0.3 -0.24 -0.3 l0 0.18 c0 0.12 0.18 0.36 0.36 0.48 c0.24 0.18 0.3 0.3 0.3 0.6 l0 0.24 l0.06 0.48 l0.06 0.36 l-0.06 0.18 l0.06 0.18 c0.18 0.18 0.24 0.72 0.24 0.96 c0 0.12 0 0.18 -0.06 0.18 l-0.06 0 l0.12 0.3 c0.06 0.12 0.12 0.3 0.12 0.54 l0 0.24 c0 0.24 0 0.48 0.06 0.54 l-0.18 -0.06 l0.12 0.3 c0.18 0.36 0.42 1.68 0.42 2.4 l0.12 0.78 l0.12 0.48 l-0.12 0.42 l0.12 0.48 c0 0.06 -0.06 0.12 -0.18 0.18 l-0.12 0 c-0.06 0 -0.18 0 -0.18 -0.06 l0 -0.06 l0.3 -0.18 l-0.18 0 c-0.24 0 -0.3 0.06 -0.3 0.3 c0.06 0.24 0.12 0.36 0.24 0.36 l0.18 0 c0.3 0 0.36 0.12 0.42 0.42 l0.06 0.48 c0 0.42 -0.12 0.78 -0.24 0.78 l-0.18 -0.18 l-0.06 0.12 l0 0.06 l0.06 0.06 c0.12 0 0.24 0.12 0.24 0.24 c0.06 0.06 0.12 0.12 0.18 0.12 l0.12 0 c0.06 0 0.06 0 0.06 0.06 l0 0.06 c0 0.12 -0.18 0.18 -0.36 0.18 l-0.3 0 c-0.06 0 -0.06 0 -0.06 0.06 l0 0.12 l0.18 0.42 l0.12 0 l0.06 -0.06 l-0.06 -0.18 c0 -0.06 0.06 -0.12 0.12 -0.12 c0.18 0 0.24 0.06 0.24 0.3 c0.06 0.18 0.12 0.78 0.18 1.38 l0.12 0.96 l-0.06 0.54 c0 0.12 0.06 0.24 0.12 0.36 l0.12 0.12 c0 0.06 0 0.06 -0.06 0.06 l-0.06 0.06 l0.06 0.06 l0.06 0.24 l-0.06 0.3 l0.06 0.24 c0.06 0.06 0.06 0.36 0.06 0.6 c0 0.18 0 0.48 0.06 0.6 l0 0.06 c0 0.06 -0.06 0.12 -0.12 0.12 c-0.12 0 -0.24 0.06 -0.24 0.18 l-0.12 -0.36 c-0.06 -0.3 -0.12 -0.42 -0.18 -0.42 s-0.06 0.06 -0.06 0.18 l0.06 0.54 c0.06 0.54 0.06 0.78 0.18 0.78 l0.12 -0.12 c0.06 -0.12 0.18 -0.18 0.3 -0.18 l0.06 0.06 l-0.12 0.12 c-0.06 0.06 -0.12 0.18 -0.12 0.36 l0.12 0.54 c0.12 0.3 0.24 0.54 0.3 0.54 l0.06 -0.06 c0.06 0 0.06 0.06 0.06 0.18 l-0.12 0.9 l0.12 0.6 c0 0.12 -0.06 0.12 -0.12 0.12 l-0.24 -0.06 l-0.12 -0.06 c-0.12 0 -0.18 0.12 -0.18 0.36 l0.12 0.66 l-0.12 0.36 l0.24 0.96 c0 0.12 -0.12 0.12 -0.24 0.12 c-0.24 0 -0.48 -0.3 -0.48 -0.72 l0 -0.18 c0 -0.18 -0.06 -0.3 -0.06 -0.3 l-0.12 0 l-0.24 -0.12 l0.12 0.24 c0.06 0.12 0.12 0.3 0.12 0.42 l-0.06 0.18 l0.12 0.3 l-0.12 0.54 c0 0.12 0.06 0.18 0.18 0.18 l0.24 -0.06 l0.24 -0.12 l0.18 0.06 c0.06 0 0.12 0 0.12 -0.12 l0 -0.06 l0.12 -0.06 c0.12 0 0.12 -0.18 0.12 -0.3 l0 -0.18 c0 -0.12 0.06 -0.36 0.12 -0.42 l0.12 -0.18 l-0.06 -0.06 c-0.12 0 -0.18 -0.06 -0.24 -0.18 c0 -0.06 0 -0.06 0.06 -0.06 l0.12 0 c0.18 0 0.36 -0.24 0.36 -0.42 l0 -0.06 c-0.06 -0.12 -0.12 -0.18 -0.24 -0.18 c-0.06 0 -0.06 0.06 -0.06 0.12 l0 0.06 c0 0.06 0 0.06 -0.06 0.06 l-0.06 0 c-0.12 -0.06 -0.24 -0.24 -0.3 -0.42 l-0.06 -0.18 l0.12 0 c0.12 0.12 0.24 0.18 0.3 0.18 c0.18 0 0.36 -0.18 0.48 -0.48 c0.12 -0.24 0.18 -0.42 0.18 -0.54 l0 -0.06 c0 -0.06 0.12 -0.18 0.3 -0.18 c0.18 -0.06 0.24 -0.06 0.24 -0.18 l-0.06 -0.24 c-0.06 -0.12 -0.06 -0.24 -0.06 -0.36 c0 -0.24 0.12 -0.36 0.36 -0.36 l0.18 0 l-0.18 -0.12 c-0.18 -0.06 -0.24 -0.06 -0.24 -0.12 l0.06 -0.18 l0.06 -0.36 l0 -0.24 c0 -0.18 0.06 -0.36 0.12 -0.48 s0.12 -0.24 0.12 -0.36 l0 -0.18 c0 -0.3 0.54 -0.96 0.78 -0.96 l0.06 0 l0.06 -0.06 l-0.12 -0.12 l-0.12 -0.24 l0.06 -0.06 l0.06 -0.18 l-0.12 -0.42 l0.06 0.06 c0.12 0.12 0.18 0.18 0.24 0.18 s0.06 -0.06 0.06 -0.12 l-0.3 -0.72 l0.3 0 c0.12 0 0.18 -0.06 0.18 -0.18 l0 -0.18 c0 -0.66 0.24 -1.14 0.54 -1.14 l0.06 0 l0.06 -0.06 l-0.06 -0.06 l-0.12 -0.24 c0 -0.18 0.18 -0.36 0.42 -0.36 c0.12 0 0.18 0 0.18 -0.06 l-0.24 -0.6 l0.18 0 c0.18 0 0.24 -0.06 0.24 -0.24 l-0.12 -0.18 l-0.24 0.12 c-0.06 0 -0.06 -0.06 -0.06 -0.12 l0 -0.18 c0.06 -0.12 0.12 -0.24 0.18 -0.24 l0.12 0 l-0.06 -0.36 c0 -0.24 0.24 -0.72 0.6 -1.44 c0.42 -0.72 0.54 -0.96 0.54 -1.08 l-0.12 -0.18 l0.12 0 c0.12 0 0.18 0.06 0.24 0.18 c0.06 0 0.12 -0.06 0.12 -0.12 c0.06 -0.12 0.18 -0.18 0.24 -0.18 l0.3 0.06 c0.12 0 0.12 -0.06 0.12 -0.12 s-0.06 -0.12 -0.18 -0.24 c-0.24 -0.18 -0.36 -0.3 -0.36 -0.42 l0.18 -0.36 c0.12 -0.12 0.18 -0.24 0.18 -0.36 l-0.06 -0.24 c0 -0.18 0.06 -0.36 0.12 -0.54 c0.18 -0.24 0.36 -0.6 0.42 -0.78 s0.18 -0.36 0.3 -0.36 c0.24 0 0.48 -0.36 0.48 -0.66 l-0.06 -0.24 c0 -0.36 0.54 -1.74 0.78 -1.74 c0.06 0 0.12 -0.18 0.18 -0.42 c0.06 -0.3 0.18 -0.48 0.48 -0.54 l0.24 -0.12 l-0.06 0 c-0.12 0 -0.18 -0.12 -0.18 -0.18 c0 -0.12 0.06 -0.24 0.24 -0.24 c0.06 0 0.12 -0.12 0.12 -0.24 l-0.06 -0.12 l0.06 -0.06 l0.06 0 c0.12 0 0.18 -0.12 0.3 -0.3 l0.18 -0.24 l-0.18 0.06 c-0.06 0 -0.06 -0.06 -0.06 -0.12 s0.06 -0.24 0.18 -0.42 c0.12 -0.12 0.24 -0.18 0.3 -0.18 l0.12 0 l-0.06 -0.12 l-0.06 -0.18 c0 -0.3 0.42 -1.02 0.66 -1.02 l0.12 0 c0.06 0 0.12 -0.12 0.24 -0.3 c0.06 -0.18 0.18 -0.3 0.3 -0.3 l0.06 0 c0.06 0 0.12 0 0.12 -0.06 s0 -0.12 -0.12 -0.12 s-0.18 -0.06 -0.18 -0.18 c0 -0.18 0.18 -0.48 0.48 -1.02 c0.3 -0.48 0.48 -0.72 0.54 -0.72 s0.06 0.06 0.06 0.18 l0.06 0.24 l0.06 -0.36 c0.18 -0.72 0.84 -1.8 1.98 -3.18 c1.5 -1.74 1.5 -1.8 2.28 -2.34 c0.24 -0.18 0.6 -0.24 0.96 -0.24 c0.66 0 1.5 0.24 2.7 0.78 c0.9 0.42 1.5 1.02 1.74 1.8 c0.12 0.18 0.36 0.54 0.54 0.72 c0.66 0.54 0.84 0.96 1.44 3.66 c0.06 0.48 0.12 1.5 0.12 2.34 l-0.06 1.92 l0.06 0.54 l-0.12 2.22 c-0.12 1.56 -0.18 1.8 -0.24 1.8 s-0.06 0 -0.06 0.06 l0.12 0.18 l-0.12 0.24 l0.18 0.3 c0 0.06 0 0.06 -0.06 0.06 s-0.12 0.24 -0.12 0.48 l-0.12 1.2 c0 0.42 -0.06 1.14 -0.12 1.62 c-0.12 1.92 -0.36 3.78 -0.48 3.78 c-0.06 0 -0.06 -0.06 -0.06 -0.24 c0 -0.24 0.06 -0.66 0.18 -1.26 c0 -0.3 0 -0.6 -0.06 -0.66 l-0.06 -0.18 l0.06 -0.12 l0.18 -0.54 l0 -0.12 c0 -0.12 -0.06 -0.18 -0.18 -0.18 l-0.12 -0.06 l0.18 -0.42 c0.12 -0.18 0.18 -0.3 0.18 -0.42 c0 -0.06 -0.06 -0.12 -0.12 -0.12 l-0.18 -0.18 l0.06 -0.06 c0.12 -0.12 0.18 -0.54 0.18 -0.84 c0 -0.12 0 -0.24 -0.06 -0.24 c-0.12 0 -0.36 0.36 -0.36 0.6 l0.12 0.36 l-0.06 0.12 c-0.06 0.06 -0.06 0.12 -0.06 0.3 l0 0.18 l-0.24 1.86 l0.06 0.66 l-0.06 0.18 c-0.06 0.06 -0.12 0.24 -0.12 0.36 l-0.06 0.6 l-0.06 0.3 c0 0.12 0.06 0.12 0.18 0.12 s0.18 0.06 0.18 0.06 l0 0.06 l-0.06 0.12 l-0.18 -0.06 c-0.12 0 -0.18 0.06 -0.18 0.18 s0.06 0.24 0.18 0.36 l0.18 0.12 c0.06 0 0.12 -0.12 0.18 -0.24 c0.06 -0.18 0.12 -0.24 0.18 -0.24 l0.06 0.3 l-0.12 0.96 l0.06 0.42 c0 0.12 -0.06 0.24 -0.12 0.3 l-0.12 0.18 c0 0.06 0 0.12 0.06 0.12 c0 0.06 0 0.06 -0.06 0.06 l-0.42 -0.06 c-0.24 0 -0.3 0.06 -0.3 0.24 s0.06 0.36 0.18 0.54 l0.24 0.24 l0.06 0 l-0.06 -0.24 c0 -0.24 0.06 -0.42 0.12 -0.48 l0.12 -0.06 c0.06 0 0.12 0.06 0.12 0.24 l-0.06 0.42 c-0.06 0.6 -0.12 0.84 -0.3 0.84 l-0.24 -0.06 l-0.3 -0.06 l-0.24 0.06 l-0.06 0.18 c0 0.06 0.06 0.12 0.24 0.24 c0.12 0.12 0.18 0.12 0.18 0.18 l-0.12 0.06 c-0.12 0 -0.24 0.24 -0.24 0.54 l-0.06 0.42 c0 0.18 0.06 0.24 0.12 0.24 l0.18 -0.06 c0.06 0 0.12 0.06 0.12 0.3 l0 0.3 l0.18 -0.24 l0.12 -0.3 c0 -0.12 -0.06 -0.18 -0.18 -0.36 c-0.18 -0.12 -0.24 -0.24 -0.24 -0.3 l0.12 -0.24 c0.12 -0.12 0.18 -0.3 0.18 -0.36 l-0.06 -0.24 c0 -0.12 0.06 -0.18 0.18 -0.18 l0.12 0.06 c0.12 0.12 0.18 0.36 0.18 0.54 s-0.06 0.36 -0.18 0.36 l-0.12 0.06 l0.06 0.06 c0.06 0.06 0.06 0.42 0.06 0.72 c0 0.42 0 0.9 -0.12 1.02 l0 0.24 c0 0.12 0 0.42 -0.06 0.66 s-0.06 0.42 -0.24 0.42 l-0.42 -0.12 c-0.18 0 -0.3 0.06 -0.3 0.18 l0 0.06 c0 0.06 0.06 0.12 0.12 0.12 l0.24 -0.12 l0.06 0.06 c0 0.06 -0.12 0.12 -0.3 0.24 c-0.18 0.06 -0.24 0.12 -0.24 0.18 l0.54 0.18 c0 0.06 -0.12 0.12 -0.24 0.24 c-0.18 0.12 -0.3 0.3 -0.3 0.36 s0.06 0.12 0.18 0.12 l0.12 0 l0.24 -0.06 l0 -0.06 c0 -0.06 0.06 -0.12 0.18 -0.12 s0.24 0.06 0.24 0.12 l-0.06 0.72 c-0.06 0.3 -0.12 0.6 -0.18 0.6 c-0.12 0 -0.18 -0.12 -0.18 -0.24 l0 -0.54 c-0.06 -0.24 -0.06 -0.3 -0.18 -0.3 l-0.12 0 c-0.12 0.06 -0.18 0.06 -0.18 0.18 l0.12 0.12 c0.12 0.18 0.24 0.36 0.24 0.48 c0 0.18 -0.12 0.24 -0.24 0.24 l-0.18 0 c-0.12 0 -0.18 0 -0.18 0.06 l0 0.06 s0.06 0.06 0.18 0.06 s0.18 0.12 0.18 0.24 l0 0.18 c0.06 0 0.12 -0.06 0.18 -0.18 s0.24 -0.24 0.36 -0.24 l0.06 0.06 l0 0.06 c0 0.3 -0.24 1.32 -0.3 1.32 l-0.06 0.12 l0.06 0.24 l0.12 0.84 c0 0.3 -0.06 0.54 -0.12 0.54 s-0.06 0 -0.06 0.06 l0 0.24 c0 0.48 -0.18 1.92 -0.3 2.04 l-0.06 0.06 l0.12 0.12 l0.06 0.18 l-0.06 0.24 l-0.12 0.24 l-0.06 -0.3 c0 -0.12 -0.06 -0.18 -0.12 -0.18 l-0.06 0 l0 0.06 l0.12 0.36 c0.12 0.18 0.18 0.42 0.18 0.78 l-0.06 0.84 c-0.06 0.66 -0.12 1.44 -0.18 1.68 c0 0.36 -0.12 0.48 -0.42 0.48 c-0.24 0.06 -0.36 0.18 -0.36 0.3 c0 0.06 0.12 0.18 0.3 0.24 c0.12 0 0.12 -0.06 0.12 -0.18 l0 -0.12 c0 -0.06 0.06 -0.12 0.12 -0.12 c0.12 0 0.24 0.24 0.24 0.48 c0 0.18 -0.06 0.36 -0.18 0.48 c-0.06 0.06 -0.3 0.12 -0.48 0.12 l-0.12 0 c-0.06 0 -0.12 0 -0.12 0.06 l0.06 0.18 c0.06 0.12 0.18 0.3 0.24 0.3 s0.06 -0.06 0.06 -0.12 l0 -0.06 c0 -0.12 0.06 -0.24 0.24 -0.24 c0.24 0 0.24 0 0.24 0.54 c-0.06 0.24 -0.06 0.6 -0.06 0.66 c0 0.12 -0.06 0.18 -0.18 0.18 l-0.06 0.06 l0.06 0.12 c0.06 0.06 0.12 0.6 0.12 1.38 l0 1.68 l-0.06 0.66 l0.12 0.72 c0.12 0.36 0.18 0.78 0.18 1.02 s-0.06 0.42 -0.12 0.42 z M12.84 11.100000000000001 l0.12 -0.12 c0 -0.06 0 -0.12 -0.06 -0.12 s-0.12 0.06 -0.12 0.12 s0 0.12 0.06 0.12 z M11.58 12.299999999999997 c0.06 0 0.12 0 0.12 -0.06 l-0.12 -0.12 l-0.12 0.06 c0 0.06 0.06 0.12 0.12 0.12 z M10.8 12.420000000000002 c0.06 0 0.12 -0.06 0.18 -0.12 c0 -0.06 0 -0.12 -0.06 -0.12 l-0.12 0.06 c-0.12 0 -0.18 0.06 -0.18 0.12 c0 0 0.06 0.06 0.18 0.06 z M10.62 13.259999999999998 l0 -0.06 c-0.06 -0.06 -0.12 -0.06 -0.18 -0.06 l-0.18 0.06 c0 0.06 0.06 0.06 0.18 0.06 l0.18 0 z M11.58 13.979999999999997 c-0.06 0 -0.06 -0.06 -0.06 -0.12 s0.06 -0.18 0.12 -0.18 l0 0.18 z M38.88 14.280000000000001 c0.06 0 0.12 0 0.12 -0.06 l-0.06 -0.06 l-0.18 0 c0 0.06 0.06 0.12 0.12 0.12 z M5.82 14.399999999999999 l0 -0.06 l-0.06 -0.18 l-0.06 0 l0 0.12 c0.06 0.06 0.06 0.12 0.12 0.12 z M11.52 15 c-0.06 0 -0.12 -0.06 -0.12 -0.12 l0 -0.12 c0 -0.06 0 -0.06 0.06 -0.06 s0.12 0.06 0.12 0.12 l0 0.06 z M32.28 15.479999999999997 l0.24 -0.12 c0 -0.06 -0.12 -0.06 -0.24 -0.06 s-0.18 0.06 -0.18 0.12 z M35.58 15.54 c0 -0.06 0 -0.18 -0.06 -0.18 l-0.06 -0.06 l-0.06 0.06 l0.12 0.18 l0.06 0 z M35.4 15.840000000000003 c0 -0.06 0 -0.18 -0.06 -0.24 l-0.06 0 l-0.06 0.06 l0.12 0.18 l0.06 0 z M38.22 16.560000000000002 c-0.06 0 -0.12 -0.06 -0.12 -0.12 l0 -0.06 l0.12 -0.06 c0.06 0 0.12 0.06 0.12 0.12 z M36.3 16.86 l0 -0.06 l-0.06 -0.18 l-0.06 0 l0 0.12 z M35.94 17.04 l0.06 -0.24 l-0.12 -0.06 c-0.06 0 -0.06 0 -0.06 0.06 l0 0.06 c0 0.06 0.06 0.18 0.12 0.18 z M9.12 17.880000000000003 l-0.12 -0.24 l0.12 -0.3 c0.06 -0.06 0.06 -0.18 0.06 -0.24 l-0.06 -0.18 l-0.12 0 l0 0.12 c0 0.06 0 0.06 -0.06 0.06 l-0.12 0 l-0.06 0.24 c0.06 0.3 0.18 0.54 0.36 0.54 z M35.52 17.58 c0.18 0 0.36 -0.06 0.36 -0.18 s-0.06 -0.24 -0.12 -0.24 s-0.06 0 -0.06 0.06 l0 0.12 c0 0.06 0 0.12 -0.06 0.12 c-0.12 0 -0.24 -0.12 -0.3 -0.3 c-0.12 -0.12 -0.12 -0.18 -0.18 -0.18 s-0.12 0 -0.18 0.12 l-0.12 0.18 c0 0.06 0.06 0.06 0.12 0.12 c0.18 0.12 0.36 0.18 0.54 0.18 z M31.02 17.759999999999998 c0.12 0 0.18 -0.06 0.18 -0.06 c0 -0.12 -0.12 -0.18 -0.18 -0.18 c-0.12 0 -0.18 0 -0.18 0.06 l0 0.06 c0 0.06 0.06 0.12 0.18 0.12 z M7.98 17.759999999999998 l0.06 -0.06 l0 -0.06 l-0.12 -0.06 l-0.12 0.06 c0 0.06 0.06 0.12 0.18 0.12 z M34.38 17.82 l0 -0.06 l-0.06 -0.12 l-0.12 0 l0.06 0.12 l0.06 0.06 l0.06 0 z M35.28 18.18 l0.18 -0.12 l0.06 -0.12 c0 -0.06 0 -0.06 -0.12 -0.12 l-0.12 0 c-0.06 0 -0.12 0.06 -0.12 0.12 c0 0.12 0.06 0.24 0.12 0.24 z M33.9 18.54 l0 -0.06 l-0.06 -0.12 l-0.06 0 l0 0.12 z M44.46 18.9 l0.06 -0.06 l0 -0.06 l-0.12 -0.06 l-0.12 0.06 c0 0.06 0.06 0.12 0.18 0.12 z M18.36 19.259999999999998 l0 -0.06 l-0.06 -0.12 l-0.06 0 l0 0.12 z M33.72 19.259999999999998 l0 -0.06 l-0.06 -0.12 l-0.06 0 l0 0.12 z M4.2 19.560000000000002 c0.06 0 0.06 -0.06 0.06 -0.12 l0.06 -0.18 l-0.06 -0.18 l-0.12 0.06 l0 0.36 z M30 19.86 l0.12 -0.06 l0.06 -0.18 l-0.06 -0.12 l-0.06 0 l-0.06 0.18 l0 0.18 z M33.24 19.86 l-0.06 -0.18 c-0.06 -0.06 -0.06 -0.12 -0.12 -0.12 l-0.12 0.06 l0.24 0.24 l0.06 0 z M42.72 19.740000000000002 l0.12 -0.06 l-0.06 -0.06 l-0.18 0 l0 0.06 z M18.24 20.159999999999997 c0.06 0 0.12 -0.06 0.12 -0.18 l0 -0.12 l-0.12 -0.24 c-0.06 0 -0.06 0.18 -0.12 0.3 l-0.06 0.18 c0 0.06 0.06 0.06 0.18 0.06 z M9.24 20.340000000000003 l0.06 -0.36 c0 -0.18 0.06 -0.3 0.12 -0.3 l0.06 0 l0 0.06 c0 0.12 -0.06 0.24 -0.12 0.36 z M44.16 19.86 l0 -0.06 l-0.12 -0.06 l-0.12 0.06 c0 0.06 0.06 0.06 0.18 0.06 l0.06 0 z M8.64 20.159999999999997 l0 -0.12 c0 -0.06 -0.12 -0.18 -0.18 -0.18 l-0.12 0.06 l0.06 0.12 z M42.96 20.04 c0.06 0 0.12 0 0.12 -0.06 l-0.06 -0.06 l-0.18 0 c0 0.06 0.06 0.12 0.12 0.12 z M34.02 20.58 c0.12 0 0.18 -0.12 0.18 -0.3 c0 -0.12 -0.06 -0.24 -0.12 -0.24 s-0.18 0.12 -0.18 0.24 l0 0.18 c0 0.06 0.06 0.12 0.12 0.12 z M44.22 20.4 c0 0 0 -0.12 -0.12 -0.24 c0 -0.06 -0.06 -0.06 -0.06 -0.06 l0 0.12 l0.12 0.18 l0.06 0 z M9.12 20.759999999999998 c-0.06 0 -0.06 -0.06 -0.06 -0.18 c0 -0.06 0.06 -0.12 0.12 -0.12 l0 0.12 c0 0.12 -0.06 0.18 -0.06 0.18 z M44.22 21.299999999999997 l0.06 -0.12 c0 -0.12 0 -0.3 -0.06 -0.42 c0 -0.12 -0.06 -0.18 -0.06 -0.18 s-0.06 0.06 -0.06 0.18 l-0.06 0.18 l0.06 0.24 c0.06 0.06 0.06 0.12 0.12 0.12 z M18.54 21.299999999999997 c0 -0.06 0 -0.18 -0.06 -0.24 l-0.06 0 l-0.06 0.06 l0.12 0.18 l0.06 0 z M7.8 21.42 l0 -0.06 l-0.06 -0.12 c-0.06 0 -0.06 -0.06 -0.06 -0.06 l-0.06 0.06 l0.12 0.18 l0.06 0 z M42.78 21.6 l-0.06 -0.18 c0 -0.12 -0.06 -0.18 -0.12 -0.18 l-0.06 0 l-0.06 0.12 l0.06 0.12 z M43.86 21.6 c0.06 0 0.12 -0.06 0.12 -0.12 l0 -0.18 c-0.06 0 -0.12 0.12 -0.12 0.18 l0 0.12 z M17.34 21.72 l0.18 -0.24 l-0.12 -0.12 c-0.06 0.06 -0.06 0.12 -0.06 0.24 l0 0.12 z M6.66 22.020000000000003 l0.36 -0.36 c0 -0.06 -0.06 -0.06 -0.12 -0.12 l-0.06 0 c-0.06 0 -0.12 0.12 -0.18 0.24 l-0.06 0.24 l0.06 0 z M8.82 21.9 c-0.06 0 -0.06 -0.06 -0.06 -0.12 c0 -0.12 0.06 -0.18 0.12 -0.18 l0 0.18 z M33.06 22.32 c0.12 0 0.18 -0.18 0.24 -0.42 l0 -0.3 c-0.12 0 -0.3 0.36 -0.3 0.54 z M9.12 22.020000000000003 c-0.06 0 -0.06 -0.06 -0.06 -0.18 c0 -0.06 0.06 -0.18 0.12 -0.18 l0.06 0.12 z M18.6 22.14 c0.12 0 0.18 -0.06 0.18 -0.18 l0 -0.06 c0 -0.06 -0.06 -0.06 -0.06 -0.06 l-0.18 0 l-0.06 0.18 l0 0.06 z M32.28 22.020000000000003 c0.12 0 0.18 -0.06 0.18 -0.12 l-0.12 -0.06 l-0.12 0 l-0.18 0.12 c0 0.06 0.12 0.06 0.24 0.06 z M43.92 23.759999999999998 l0.18 -0.18 l0.12 -0.3 l-0.12 -0.3 l0.18 -0.54 l-0.12 -0.36 l-0.18 -0.24 c-0.06 0.06 -0.06 0.12 -0.12 0.36 l-0.06 0.3 c0 0.06 0 0.06 0.06 0.06 l0.12 -0.06 l0.06 0.12 l0 0.06 c0 0.06 -0.06 0.12 -0.12 0.18 s-0.12 0.3 -0.12 0.54 c0.06 0.24 0.06 0.36 0.12 0.36 z M31.74 22.200000000000003 l0.12 -0.18 c0 -0.06 -0.06 -0.12 -0.12 -0.12 c-0.12 0 -0.12 0.06 -0.12 0.12 z M9 22.5 c-0.06 0 -0.06 -0.06 -0.06 -0.18 c0.06 -0.06 0.06 -0.12 0.12 -0.12 s0.06 0.06 0.06 0.12 z M3.12 22.979999999999997 l-0.06 -0.06 c0 -0.06 0 -0.18 0.12 -0.3 l0.12 -0.06 l0.06 0 l-0.06 0.36 z M8.94 23.04 c-0.06 0 -0.12 -0.06 -0.12 -0.12 l0 -0.06 l0.06 -0.18 l0.06 0 l0.06 0.12 c0 0.18 -0.06 0.24 -0.06 0.24 z M33.6 23.04 l0.06 -0.06 c0 -0.06 0 -0.12 -0.06 -0.18 l-0.12 0 z M7.2 23.22 c0.06 0 0.06 -0.06 0.06 -0.12 l0 -0.06 c0 -0.06 -0.12 -0.12 -0.18 -0.12 s-0.06 0 -0.06 0.06 l0 0.06 c0 0.06 0.06 0.18 0.18 0.18 z M42.3 23.759999999999998 l0.12 -0.18 l0.06 -0.54 l-0.06 -0.12 c-0.06 0 -0.12 0.12 -0.12 0.3 l0 0.54 z M6.84 23.46 l0.12 -0.06 l-0.06 -0.12 c0 -0.12 -0.06 -0.24 -0.12 -0.24 l-0.06 0.24 c0 0.12 0.06 0.18 0.12 0.18 z M8.76 23.759999999999998 c-0.06 0 -0.12 -0.06 -0.12 -0.12 l0 -0.06 c0 -0.06 0.06 -0.12 0.12 -0.12 s0.06 0 0.06 0.06 l0 0.12 z M32.4 23.880000000000003 c0 -0.06 0 -0.18 -0.06 -0.18 l-0.06 -0.06 c-0.06 0 -0.06 0.06 -0.06 0.12 c0.06 0.06 0.06 0.12 0.12 0.12 l0.06 0 z M8.52 24.36 c-0.06 0 -0.06 -0.06 -0.06 -0.18 l0.12 -0.12 c0.06 0 0.06 0.06 0.06 0.12 z M43.92 24.36 c0.12 0 0.18 -0.06 0.18 -0.18 l0 -0.06 l-0.12 -0.06 c-0.06 0 -0.12 0.06 -0.18 0.12 c0 0.12 0.06 0.18 0.12 0.18 z M31.98 24.659999999999997 c0.06 0 0.12 -0.12 0.18 -0.18 l0.12 -0.24 l-0.06 -0.12 l-0.24 0.12 c-0.12 0.06 -0.18 0.18 -0.18 0.3 c0 0.06 0.06 0.12 0.18 0.12 z M43.92 25.200000000000003 c0.06 0 0.12 -0.06 0.12 -0.12 l-0.06 -0.18 c0 -0.12 -0.06 -0.18 -0.06 -0.18 l-0.06 0 c-0.06 0 -0.06 0.06 -0.12 0.12 l-0.06 0.3 z M30.42 25.200000000000003 l0 -0.18 c0 -0.12 0 -0.18 -0.12 -0.18 l-0.24 0.12 l0.12 0.12 z M6.72 25.32 l0 -0.06 l-0.06 -0.18 c-0.06 0 -0.06 0.06 -0.06 0.12 c0.06 0.06 0.06 0.12 0.12 0.12 z M30.06 25.5 l0.12 -0.18 c0 -0.06 -0.06 -0.12 -0.12 -0.12 c-0.12 0 -0.12 0.06 -0.12 0.12 z M31.2 25.619999999999997 l0.18 -0.06 l0.12 -0.12 l-0.06 -0.06 c-0.06 0 -0.12 0 -0.18 0.12 z M19.08 26.159999999999997 c0.06 0 0.12 -0.12 0.12 -0.36 l0 -0.18 c0 -0.12 0 -0.24 -0.06 -0.24 s-0.06 0.06 -0.12 0.12 l-0.12 0.24 l0.06 0.24 z M43.98 25.979999999999997 c0.06 0 0.12 -0.12 0.12 -0.3 l0 -0.12 l-0.06 0 l-0.12 0.06 l-0.06 0.18 c0 0.06 0 0.12 0.06 0.18 l0.06 0 z M42.3 25.86 l0 -0.06 l-0.06 -0.12 l-0.12 0 l0.06 0.12 c0 0.06 0.06 0.06 0.06 0.06 l0.06 0 z M42.12 26.880000000000003 l0.12 -0.12 c0.06 -0.06 0.12 -0.12 0.12 -0.18 l-0.06 -0.18 l0.06 -0.06 c0.06 0 0.12 -0.06 0.12 -0.12 c-0.06 -0.12 -0.12 -0.18 -0.18 -0.18 c-0.12 0.06 -0.24 0.18 -0.24 0.48 l0 0.24 c0 0.06 0 0.12 0.06 0.12 z M19.26 26.58 l0 -0.06 l-0.06 -0.12 l-0.06 0 l0 0.12 z M19.56 26.58 l0 -0.06 l-0.06 -0.12 l-0.06 0 l0 0.12 z M26.88 26.58 l0 -0.06 l-0.06 -0.12 l-0.06 0 l0 0.12 z M30.72 27 c0.06 0 0.06 -0.06 0.12 -0.12 l0.06 -0.48 c-0.06 0 -0.12 0.06 -0.18 0.18 c-0.06 0.18 -0.06 0.36 -0.06 0.42 l0.06 0 z M32.46 27.060000000000002 l0 -0.12 c0 -0.06 0.06 -0.18 0.12 -0.18 l0 0.18 c0 0.06 -0.06 0.12 -0.12 0.12 z M2.52 27.18 l0 -0.06 l-0.06 -0.12 c0 -0.06 -0.06 -0.06 -0.06 -0.06 l0 0.12 c0.06 0.06 0.06 0.12 0.12 0.12 z M42.24 27.96 c0.06 0 0.06 -0.06 0.06 -0.12 l0 -0.06 c0 -0.06 -0.06 -0.12 -0.12 -0.12 l-0.06 0.12 l0 0.06 c0 0.06 0.06 0.12 0.12 0.12 z M31.32 28.08 l0.12 -0.06 l0 -0.06 c0 -0.12 -0.06 -0.18 -0.12 -0.18 c0 0 -0.06 0.06 -0.06 0.18 l0 0.06 s0 0.06 0.06 0.06 z M42.3 28.2 l-0.06 -0.06 l-0.12 -0.06 s-0.06 0 -0.06 0.06 l0 0.06 l0.24 0 z M18.3 28.32 l0 -0.06 l-0.06 -0.12 s0 -0.06 -0.06 -0.06 l0 0.12 c0.06 0.06 0.06 0.12 0.12 0.12 z M42.24 28.74 c0.06 -0.06 0.06 -0.18 0.06 -0.24 l-0.12 -0.06 l-0.06 0 l-0.06 0.18 l0 0.06 c0 0.06 0.06 0.06 0.12 0.06 l0.06 0 z M29.16 28.8 l0.12 -0.06 l-0.06 -0.06 l-0.18 0 l0 0.06 z M19.5 29.52 c0.06 0 0.12 -0.12 0.12 -0.3 c-0.06 -0.12 -0.12 -0.3 -0.24 -0.36 l-0.06 -0.06 l0 0.12 l0.12 0.12 l-0.06 0.12 l-0.06 0.18 c0 0.06 0.06 0.18 0.18 0.18 z M29.58 29.46 c0.06 0 0.12 -0.06 0.18 -0.12 c0.12 -0.06 0.18 -0.18 0.24 -0.24 l-0.18 0 c-0.12 0 -0.24 0.12 -0.24 0.24 l0 0.12 z M5.88 29.22 c0.06 0 0.12 0 0.12 -0.06 l-0.06 0 c0 -0.06 -0.06 -0.06 -0.06 -0.06 l-0.12 0.06 z M31.32 29.7 c-0.06 0 -0.12 0 -0.24 -0.12 l-0.06 -0.18 l0.18 0.06 l0.12 -0.12 l0.12 -0.06 c0.06 0 0.06 0 0.06 0.06 l0 0.06 c0 0.12 0 0.18 -0.06 0.24 z M30.18 29.82 l0.06 -0.24 c0 -0.12 -0.06 -0.18 -0.06 -0.18 l-0.06 0.06 c-0.06 0.06 -0.06 0.12 -0.06 0.18 c0 0.12 0.06 0.18 0.12 0.18 z M6 29.94 l0 -0.06 c0 -0.06 -0.12 -0.12 -0.24 -0.18 l-0.12 0 l0.12 0.06 c0.06 0.12 0.18 0.18 0.24 0.18 z M28.74 29.94 c0.06 0 0.12 -0.06 0.12 -0.12 l0 -0.06 l-0.24 -0.06 l-0.12 0.06 l0 0.06 z M29.46 29.94 c0.06 0 0.12 0 0.12 -0.06 l-0.42 -0.18 l0 0.12 c0.06 0.06 0.24 0.12 0.3 0.12 z M18.72 30.18 c0 -0.06 0 -0.12 -0.06 -0.18 l-0.12 0 l0.06 0.12 l0.06 0.06 l0.06 0 z M5.64 30.72 c0.12 0 0.18 -0.06 0.18 -0.18 l-0.06 -0.3 c-0.12 -0.12 -0.12 -0.18 -0.18 -0.18 s-0.12 0.06 -0.18 0.18 c-0.06 0.06 -0.06 0.12 -0.06 0.18 s0 0.12 0.12 0.24 c0.06 0.06 0.12 0.06 0.18 0.06 z M29.28 30.48 l0 -0.06 l-0.06 -0.12 c0 -0.06 0 -0.06 -0.06 -0.06 l0 0.12 c0.06 0.06 0.06 0.12 0.12 0.12 z M18.66 30.78 c0.12 0 0.12 -0.06 0.12 -0.18 l-0.18 -0.24 l-0.06 0.24 c0 0.12 0.06 0.18 0.12 0.18 z M30.3 31.38 c-0.12 0 -0.18 0 -0.24 -0.06 l0.24 -0.54 c0.12 -0.18 0.24 -0.3 0.3 -0.3 l0.06 0 c0 0.06 -0.06 0.24 -0.12 0.3 l-0.06 0.3 l0 0.12 c0 0.12 -0.06 0.18 -0.18 0.18 z M28.92 31.26 l0.12 -0.18 c0.12 -0.18 0.12 -0.3 0.12 -0.36 l-0.06 0 c-0.06 0.06 -0.12 0.12 -0.12 0.3 z M43.26 31.08 l-0.06 -0.06 l0.12 -0.24 c0.06 0 0.06 0.12 0.06 0.18 s-0.06 0.12 -0.12 0.12 z M27.78 31.08 l0.06 -0.12 l0 -0.18 c-0.06 0 -0.12 0.12 -0.12 0.18 s0 0.12 0.06 0.12 z M40.5 31.32 l0 -0.06 l-0.06 -0.12 l-0.06 0 l0 0.12 z M1.56 33.54 c0.06 0 0.12 -0.12 0.12 -0.3 l0 -0.54 c0 -0.48 0.06 -0.96 0.12 -1.02 l-0.06 -0.36 c-0.12 0 -0.18 0.3 -0.24 0.72 l-0.06 1.14 c0 0.3 0 0.36 0.12 0.36 z M5.52 32.04 l0.12 -0.06 l0.12 -0.24 l-0.12 -0.18 l-0.24 -0.12 c-0.06 0 -0.12 0 -0.12 0.06 l0 0.06 c0.06 0.06 0.12 0.24 0.12 0.36 z M18.9 31.74 c0.06 -0.06 0.06 -0.18 0.06 -0.24 l-0.12 -0.06 l-0.06 0 l-0.06 0.18 l0 0.06 c0 0.06 0.06 0.06 0.12 0.06 l0.06 0 z M25.32 31.68 l0.12 -0.06 l-0.06 -0.06 l-0.18 0 l0 0.06 z M19.86 33.120000000000005 c0.12 0 0.24 -0.42 0.24 -0.72 c0 -0.18 0 -0.24 -0.06 -0.3 c-0.06 0 -0.18 -0.18 -0.18 -0.3 l-0.06 -0.12 s-0.06 0.12 -0.06 0.3 c-0.06 0.24 -0.12 0.48 -0.18 0.54 c-0.06 0 -0.06 0.06 -0.06 0.12 c0 0.12 0.18 0.42 0.36 0.48 z M27.66 31.92 c0 -0.06 0 -0.18 -0.06 -0.18 l-0.06 -0.06 l-0.06 0.06 l0.12 0.18 l0.06 0 z M28.56 32.22 c0.06 0 0.12 -0.06 0.18 -0.12 l0.12 -0.24 c0 -0.06 -0.06 -0.12 -0.12 -0.12 c0 0 -0.12 0 -0.18 0.12 l-0.24 0.12 l-0.12 0 l0.06 0.06 c0.12 0.12 0.18 0.18 0.3 0.18 z M30.18 32.34 l0 -0.12 c0 -0.12 0.06 -0.18 0.06 -0.18 l0.06 0 l0.06 0.06 l-0.06 0.18 z M5.7 32.519999999999996 l0.06 -0.06 s0 -0.12 -0.12 -0.18 c-0.06 0 -0.06 0 -0.06 0.12 z M41.7 32.58 c0.06 0 0.12 -0.06 0.12 -0.12 l0 -0.06 c0 -0.06 -0.06 -0.06 -0.12 -0.06 l-0.12 0 l-0.12 0.12 l0.06 0.06 c0.06 0.06 0.12 0.06 0.18 0.06 z M5.28 33 c0.06 0 0.06 -0.06 0.12 -0.18 c0 -0.18 0 -0.42 -0.06 -0.42 s-0.12 0.18 -0.12 0.36 l0 0.18 z M27.84 32.760000000000005 c0 -0.06 0 -0.12 -0.12 -0.18 c-0.06 0 -0.06 0 -0.06 0.12 l0.12 0.06 l0.06 0 z M28.62 32.94 l-0.06 -0.06 c0 -0.06 -0.06 -0.06 -0.12 -0.06 c0 0 -0.06 0 -0.06 0.06 l0 0.06 l0.24 0 z M42.66 34.379999999999995 c0.18 0 0.48 -0.24 0.66 -0.54 c0.06 -0.12 0.12 -0.3 0.12 -0.42 s-0.06 -0.24 -0.12 -0.24 l-0.24 0.12 l-0.12 -0.06 c-0.06 0 -0.18 0.06 -0.3 0.18 c-0.06 0.12 -0.06 0.18 -0.06 0.3 l0.06 0.12 l0.12 0.06 l-0.12 0.12 c-0.12 0.06 -0.18 0.18 -0.18 0.24 z M41.58 33.42 l0.12 -0.06 l-0.06 -0.06 l-0.12 -0.06 l-0.06 0.06 c0 0.06 0 0.12 0.12 0.12 z M5.28 33.66 l0 -0.06 l-0.06 -0.18 l-0.06 0 l0 0.12 c0.06 0.12 0.06 0.12 0.12 0.12 z M18.78 34.2 c0.18 0 0.3 -0.18 0.36 -0.3 l-0.06 0 l0.06 -0.18 l-0.18 0 l-0.24 -0.12 c-0.12 -0.12 -0.18 -0.12 -0.18 -0.12 c-0.06 0 -0.06 0.12 -0.06 0.3 c0 0.36 0.06 0.42 0.3 0.42 z M41.94 33.84 c0.06 0 0.12 -0.06 0.12 -0.18 c0 -0.06 -0.06 -0.12 -0.12 -0.12 s-0.12 0.06 -0.12 0.12 z M20.04 34.2 l0.06 -0.18 l-0.06 -0.24 l-0.12 -0.24 l-0.06 0.24 c0 0.3 0.06 0.42 0.12 0.42 l0.06 0 z M41.52 33.96 l0.06 -0.06 l0 -0.06 c0 -0.12 -0.06 -0.18 -0.06 -0.18 c-0.06 0 -0.12 0.06 -0.12 0.18 c0 0.06 0 0.12 0.12 0.12 z M17.88 33.96 l0 -0.12 l-0.06 -0.12 l-0.06 0 l0 0.12 z M18.96 34.56 l0.12 -0.06 l0 -0.06 l-0.24 0 l-0.06 0.06 z M26.82 34.86 l0.06 -0.18 l0 -0.12 c-0.06 0 -0.12 0.06 -0.12 0.12 s0 0.18 0.06 0.18 z M27.6 34.86 c0.06 0 0.12 -0.12 0.12 -0.18 l-0.12 -0.12 c-0.06 0 -0.12 0.06 -0.12 0.12 s0 0.18 0.12 0.18 z M20.1 35.760000000000005 l0.12 -0.06 l0.12 -0.24 l-0.12 -0.3 l0.12 -0.42 c0 -0.06 -0.06 -0.06 -0.18 -0.06 c-0.18 0 -0.24 0.24 -0.24 0.54 l0.06 0.42 c0.06 0.12 0.06 0.12 0.12 0.12 z M37.92 35.1 l-0.06 -0.12 l0 -0.12 l0.06 0 l0.06 0.18 z M5.04 35.1 l0.06 -0.06 s0 -0.12 -0.06 -0.18 l-0.06 0 c-0.06 0 -0.06 0.06 -0.06 0.12 z M41.1 35.22 l0.18 -0.06 c0.12 -0.06 0.18 -0.12 0.18 -0.24 l-0.12 -0.06 l-0.12 0.12 z M18.12 35.519999999999996 l0.06 -0.06 l-0.06 -0.18 c-0.06 -0.18 -0.12 -0.3 -0.18 -0.3 l0 0.3 c0 0.12 0.06 0.24 0.18 0.24 z M18.78 35.519999999999996 c0.18 0 0.3 -0.06 0.36 -0.12 l0.06 -0.24 c0 -0.12 -0.12 -0.18 -0.36 -0.18 c-0.12 0 -0.18 0 -0.18 0.06 l0.06 0 c0.18 0.06 0.24 0.18 0.24 0.24 s-0.06 0.18 -0.18 0.18 l-0.12 0.06 l0.12 0 z M1.14 35.82 l0.12 -0.18 l0.06 -0.3 l-0.06 -0.24 l-0.06 -0.06 s-0.06 0.12 -0.06 0.3 l-0.06 0.36 c0 0.12 0 0.12 0.06 0.12 z M27.48 35.519999999999996 l-0.06 -0.3 l-0.12 -0.06 z M41.7 35.7 c0.06 0 0.12 -0.12 0.12 -0.24 c0 -0.06 0 -0.12 -0.06 -0.12 l-0.06 0 c-0.06 0.06 -0.06 0.12 -0.06 0.24 z M28.86 35.879999999999995 l0.06 -0.36 c0 -0.12 0.06 -0.18 0.12 -0.18 c0 0 0.06 0 0.12 0.12 l0.06 0.12 l-0.12 0.24 z M19.14 35.94 l-0.06 -0.06 l-0.36 0 c0 0.06 0.12 0.06 0.24 0.06 l0.18 0 z M43.08 36.06 l0 -0.06 l-0.06 -0.12 l-0.06 0 l0 0.12 z M26.94 36.480000000000004 c0.06 0 0.12 -0.06 0.18 -0.12 l0.12 -0.3 l0 -0.06 l-0.06 0 c-0.12 0 -0.3 0.24 -0.3 0.36 z M28.26 36.96 c-0.12 0 -0.18 -0.06 -0.18 -0.18 s0.06 -0.18 0.18 -0.18 l0.12 0 c0.12 0 0.18 -0.06 0.24 -0.18 c0 -0.18 0.12 -0.3 0.18 -0.3 l0.06 0.06 l-0.12 0.36 c-0.06 0.18 -0.12 0.3 -0.18 0.3 l-0.12 -0.06 l-0.12 -0.12 l-0.06 0.06 l0.06 0.06 c0 0.12 0 0.18 -0.06 0.18 z M18.06 36.36 c0 -0.06 0 -0.12 -0.06 -0.18 c-0.06 0 -0.06 -0.06 -0.06 -0.06 l-0.06 0.06 l0.12 0.18 l0.06 0 z M41.4 36.42 l0.06 -0.06 l0 -0.06 l-0.18 0 l0 0.06 z M38.46 36.72 l0.12 -0.06 l-0.06 -0.06 l-0.12 -0.06 l-0.06 0.12 z M26.88 36.96 l0.12 -0.06 l0 -0.06 c0 -0.06 0 -0.06 -0.06 -0.06 l-0.12 0 l-0.18 0.12 c0 0.06 0.12 0.06 0.24 0.06 z M41.22 37.32 c0.12 0 0.3 -0.06 0.42 -0.12 s0.12 -0.06 0.12 -0.12 l-0.42 -0.18 c-0.18 0 -0.42 0.06 -0.42 0.18 l0.06 0.12 c0 0.06 0.06 0.12 0.12 0.12 l0.12 0 z M38.46 37.260000000000005 l0.12 -0.12 l-0.06 -0.18 l-0.12 0.18 c0 0.06 0 0.12 0.06 0.12 z M18.9 37.86 l0.12 -0.06 l0.06 -0.18 l-0.06 -0.24 c-0.06 -0.12 -0.18 -0.18 -0.24 -0.24 c-0.06 0 -0.06 0.06 -0.06 0.18 l0.06 0.3 c0.06 0.18 0.06 0.24 0.12 0.24 z M39.78 37.56 l0.24 -0.06 l0 -0.06 c0 -0.06 -0.12 -0.12 -0.24 -0.12 s-0.24 0.06 -0.24 0.12 l0 0.06 z M39.18 37.620000000000005 l0.12 -0.12 c0 -0.06 -0.12 -0.06 -0.24 -0.06 l-0.12 0.06 l0 0.06 c0 0.06 0.06 0.06 0.12 0.06 l0.12 0 z M26.52 38.1 l0.12 -0.12 c0.12 -0.06 0.12 -0.24 0.12 -0.3 s-0.12 -0.12 -0.24 -0.12 c-0.06 0 -0.12 0.06 -0.12 0.18 l0 0.12 c0.06 0.12 0.06 0.24 0.12 0.24 z M40.92 39.120000000000005 c0.06 0 0.12 -0.24 0.12 -0.6 c0 -0.48 0 -0.72 -0.06 -0.78 c-0.06 0 -0.12 0.06 -0.18 0.18 c-0.06 0.06 -0.06 0.12 -0.06 0.24 c0 0.06 0 0.18 0.06 0.24 l0.06 0.42 l-0.06 0.24 z M41.4 38.16 c0.12 0 0.12 -0.12 0.12 -0.18 s-0.06 -0.12 -0.12 -0.12 l-0.12 0.12 c0 0.06 0.06 0.18 0.12 0.18 z M39.9 38.4 l0 -0.06 l-0.12 -0.06 l-0.24 0.06 c0 0.06 0.06 0.06 0.18 0.06 l0.18 0 z M26.16 39.120000000000005 l0.18 -0.3 c0.12 -0.18 0.18 -0.36 0.18 -0.42 l0 -0.06 c-0.06 0 -0.18 0.18 -0.24 0.42 z M42.66 40.08 l-0.06 -0.18 c0 -0.12 0.06 -0.3 0.12 -0.36 l0 -0.06 c0 -0.06 -0.06 -0.12 -0.18 -0.18 l-0.12 -0.12 c0 -0.06 0 -0.06 0.06 -0.06 s0.12 -0.06 0.12 -0.12 l-0.12 -0.24 c-0.06 -0.18 -0.06 -0.3 -0.12 -0.3 c-0.06 0.06 -0.06 0.18 -0.12 0.42 l-0.06 0.48 c0 0.18 0.06 0.3 0.18 0.48 l0.24 0.24 l0.06 0 z M19.5 39 c0.06 0 0.06 -0.12 0.06 -0.24 c-0.06 -0.12 -0.12 -0.18 -0.18 -0.18 l-0.06 0.18 c0 0.12 0.06 0.24 0.18 0.24 z M20.46 39.96 l0.12 -0.06 c0.06 -0.06 0.12 -0.24 0.12 -0.36 l0 -0.18 c-0.12 -0.36 -0.18 -0.54 -0.3 -0.54 c-0.06 0 -0.12 0.12 -0.12 0.3 c0 0.6 0.06 0.84 0.18 0.84 z M19.02 39.42 c0.12 0 0.12 -0.12 0.12 -0.24 c-0.06 -0.06 -0.12 -0.12 -0.18 -0.12 l-0.06 0 l-0.06 0.24 c0.06 0.06 0.12 0.12 0.18 0.12 z M19.14 40.379999999999995 c0.06 0 0.12 -0.06 0.18 -0.24 c0.06 -0.12 0.18 -0.3 0.3 -0.3 l0.06 -0.12 l-0.06 -0.24 c-0.06 -0.12 -0.12 -0.24 -0.18 -0.24 l-0.06 0 l-0.06 0.12 l0.18 0.3 l-0.24 -0.06 c-0.18 0 -0.3 0.18 -0.3 0.36 l0.06 0.18 z M39.84 39.6 l0.12 -0.18 c0 -0.06 0 -0.12 -0.06 -0.12 l-0.12 0.12 z M5.82 39.54 l-0.06 0 l-0.12 -0.18 l0.06 -0.06 l0.06 0.06 c0.06 0 0.06 0.12 0.06 0.18 z M26.64 39.54 l0 -0.06 c0 -0.06 0 -0.12 -0.06 -0.12 c0 -0.06 -0.06 -0.06 -0.06 -0.06 l0 0.12 c0.06 0.06 0.06 0.12 0.12 0.12 z M40.86 39.54 l0.18 -0.06 c0 -0.06 -0.18 -0.12 -0.3 -0.12 c-0.06 0 -0.06 0 -0.06 0.06 s0.06 0.12 0.18 0.12 z M26.04 39.72 c0.06 0 0.12 -0.06 0.12 -0.18 l-0.12 -0.12 c-0.06 0 -0.12 0.06 -0.12 0.12 c0 0.12 0.06 0.18 0.12 0.18 z M18.54 40.019999999999996 c0.12 0 0.24 -0.06 0.24 -0.18 c-0.06 -0.06 -0.12 -0.06 -0.24 -0.06 s-0.24 0.06 -0.3 0.12 c0 0.06 0.12 0.12 0.3 0.12 z M4.38 40.14 c0.06 0 0.06 -0.06 0.06 -0.06 l0 -0.06 c0 -0.12 -0.06 -0.18 -0.12 -0.18 c0 0 -0.06 0.06 -0.06 0.18 l0 0.06 z M40.62 40.14 c0.06 0 0.12 -0.06 0.12 -0.12 c0 -0.12 -0.06 -0.18 -0.12 -0.18 s-0.12 0.06 -0.12 0.18 z M38.82 40.019999999999996 l0.06 -0.06 l0 -0.06 l-0.12 -0.06 l-0.12 0.06 c0 0.06 0.06 0.12 0.18 0.12 z M39.84 40.14 c0.12 0 0.18 -0.06 0.18 -0.06 l0 -0.06 l-0.36 0 l-0.06 0.06 z M4.8 40.44 c0.06 0 0.12 -0.06 0.12 -0.18 c0 -0.06 -0.06 -0.12 -0.12 -0.12 s-0.12 0.06 -0.12 0.12 z M42.42 40.260000000000005 l0 -0.06 l-0.12 -0.06 c-0.06 0 -0.12 0 -0.18 0.06 l-0.06 0.06 l0.36 0 z M0.6 40.739999999999995 l0.12 -0.18 c0 -0.06 0 -0.12 -0.06 -0.12 l-0.12 0.12 z M19.74 40.68 c0 -0.06 0 -0.12 -0.06 -0.18 l-0.06 -0.06 l-0.06 0.06 l0.12 0.18 l0.06 0 z M25.68 40.8 l0 -0.06 l-0.06 -0.12 l-0.12 0 l0.06 0.12 l0.06 0.06 l0.06 0 z M26.64 41.28 c0.06 0 0.12 -0.12 0.18 -0.3 l0.12 -0.18 l-0.12 -0.06 c-0.06 0 -0.12 0.12 -0.18 0.24 l0 0.3 z M42.66 41.519999999999996 l0 -0.18 c0 -0.12 0.06 -0.3 0.12 -0.36 l0.06 0.18 l-0.06 0.18 c-0.06 0.12 -0.06 0.18 -0.12 0.18 z M25.68 41.16 c0.06 0 0.12 0 0.12 -0.06 l-0.06 -0.06 l-0.18 0 c0 0.06 0.06 0.12 0.12 0.12 z M19.68 41.4 l-0.06 -0.24 c-0.06 0 -0.06 0.06 -0.06 0.12 c0.06 0.06 0.06 0.12 0.12 0.12 z M39.66 41.58 c0.06 0 0.12 -0.06 0.18 -0.12 c0 -0.12 -0.12 -0.18 -0.24 -0.18 c-0.06 0 -0.12 0.06 -0.12 0.12 l0 0.06 c0 0.06 0.06 0.12 0.18 0.12 z M38.58 41.519999999999996 l0 -0.06 l-0.06 -0.12 l-0.12 0 l0.06 0.12 l0.06 0.06 l0.06 0 z M38.04 41.7 l-0.06 -0.3 l-0.12 -0.06 z M40.5 41.760000000000005 l0.06 -0.24 c0 -0.12 -0.06 -0.18 -0.06 -0.18 l-0.06 0 l-0.06 0.18 l0 0.06 c0 0.12 0.06 0.18 0.12 0.18 z M4.32 41.879999999999995 l0.06 -0.24 c0 -0.12 -0.06 -0.24 -0.18 -0.3 l-0.06 0 l0 0.24 c0.06 0.18 0.12 0.3 0.18 0.3 z M25.32 42 c0.06 0 0.12 -0.06 0.12 -0.12 l0 -0.18 c-0.06 0 -0.12 0.12 -0.12 0.18 l0 0.12 z M26.64 42.54 l-0.06 -0.12 c0 -0.12 0 -0.36 0.06 -0.48 s0.06 -0.18 0.12 -0.18 l0.06 0.18 l-0.06 0.36 c-0.06 0.12 -0.06 0.24 -0.12 0.24 z M41.1 42.3 l-0.06 -0.24 c-0.12 -0.06 -0.18 -0.18 -0.3 -0.18 c-0.06 0 -0.06 0 -0.06 0.06 l0 0.06 c0.06 0.12 0.24 0.3 0.42 0.3 z M18.48 42.3 c0.06 0 0.18 -0.06 0.18 -0.18 l0 -0.12 c0 -0.06 0 -0.06 -0.06 -0.06 s-0.12 0 -0.18 0.12 l-0.06 0.18 z M25.32 42.42 l0.06 -0.06 l0 -0.06 c0 -0.06 -0.06 -0.12 -0.12 -0.12 l-0.06 0.12 l0 0.06 z M38.04 42.42 l0 -0.12 c0 -0.06 -0.12 -0.12 -0.18 -0.12 l-0.12 0.06 l0.06 0.06 z M40.32 43.019999999999996 c0.06 0 0.12 -0.12 0.12 -0.24 l0 -0.12 c0 -0.12 0 -0.12 -0.06 -0.18 c-0.06 0 -0.12 0.06 -0.18 0.24 c0 0.18 0 0.3 0.12 0.3 z M37.8 43.14 l0.12 -0.06 l0.06 -0.18 l-0.06 -0.12 l-0.06 0 c-0.06 0 -0.06 0.12 -0.06 0.18 l0 0.18 z M4.14 43.620000000000005 c0.12 0 0.12 -0.12 0.12 -0.18 c-0.06 -0.06 -0.06 -0.12 -0.12 -0.12 s-0.06 0.06 -0.12 0.12 c0 0.06 0.06 0.18 0.12 0.18 z M40.26 43.739999999999995 c0.12 0 0.12 -0.06 0.12 -0.12 l-0.12 -0.18 l-0.12 0.18 c0 0.06 0.06 0.12 0.12 0.12 z M41.82 43.86 l0 -0.06 l-0.06 -0.18 c-0.06 0 -0.06 0.06 -0.06 0.12 c0.06 0.12 0.12 0.12 0.12 0.12 z M39.48 43.980000000000004 c0 -0.06 0 -0.12 -0.12 -0.18 l0 -0.06 c-0.06 0 -0.06 0.06 -0.06 0.12 c0.06 0.06 0.06 0.12 0.12 0.12 l0.06 0 z M41.64 49.08 l0.06 -0.3 c0 -0.18 0.06 -0.3 0.18 -0.3 l0.06 0 l-0.12 -0.12 c-0.06 0 -0.06 -0.06 -0.06 -0.18 c0 -0.06 0 -0.18 0.12 -0.36 s0.18 -0.3 0.18 -0.42 l-0.06 -0.24 c-0.06 -0.12 -0.12 -0.48 -0.12 -0.78 l0.06 -0.36 c0 -0.12 -0.06 -0.18 -0.18 -0.24 s-0.12 -0.12 -0.12 -0.18 l0.06 -0.12 l0.06 -0.36 c0 -0.12 0 -0.3 0.06 -0.42 l0.06 -0.12 c0 -0.12 -0.06 -0.18 -0.12 -0.3 l-0.12 -0.06 l-0.06 0 l0.06 0.06 c0 0.06 -0.06 0.36 -0.18 0.54 l-0.06 0.48 c0 0.12 0 0.24 0.06 0.3 l0.06 0.24 l-0.06 0.18 c0 0.06 0.06 0.12 0.18 0.18 c0.06 0.06 0.12 0.06 0.12 0.12 l-0.06 0 c-0.06 0 -0.12 0.12 -0.12 0.3 l0.06 0.42 c0 0.42 0 0.66 -0.12 0.66 c-0.06 -0.06 -0.12 -0.18 -0.12 -0.36 l0 -0.06 c-0.06 0 -0.06 0.06 -0.12 0.18 l-0.06 0.24 c0 0.12 0.06 0.3 0.12 0.42 l0.12 0.3 l-0.06 0.12 c0 0.06 0.06 0.24 0.24 0.54 z M5.16 44.58 c0.06 0 0.06 -0.06 0.12 -0.12 c0 -0.06 0 -0.12 -0.06 -0.12 l-0.12 0.12 c0 0.06 0 0.12 0.06 0.12 z M40.2 46.08 c0.06 0 0.24 -0.12 0.36 -0.3 l0.06 -0.18 l-0.24 -0.66 c0 -0.06 0.06 -0.12 0.12 -0.18 c0.12 -0.06 0.18 -0.18 0.18 -0.24 c0 -0.12 -0.12 -0.18 -0.3 -0.18 c-0.12 0 -0.18 0.18 -0.18 0.42 s-0.06 0.42 -0.12 0.42 s-0.06 0.06 -0.06 0.12 l0 0.18 c0 0.06 0 0.12 -0.06 0.12 l-0.06 0.06 l0.06 0.24 c0.06 0.12 0.12 0.18 0.24 0.18 z M20.16 44.88 c0.06 0 0.12 -0.12 0.12 -0.24 c0 -0.18 0 -0.24 -0.06 -0.3 l-0.24 0.42 c0 0.06 0.06 0.12 0.18 0.12 z M25.86 45.3 c-0.06 0 -0.06 -0.06 -0.06 -0.12 l0 -0.06 c0.06 -0.12 0.12 -0.18 0.18 -0.18 l0.06 0 l0.06 0.12 c0 0.12 -0.12 0.24 -0.24 0.24 z M38.28 45.480000000000004 c0.06 0 0.12 -0.06 0.12 -0.12 l0 -0.06 c0 -0.06 -0.06 -0.12 -0.12 -0.12 l-0.12 0.12 c0 0.12 0.06 0.18 0.12 0.18 z M40.32 45.54 l-0.06 0 l-0.06 -0.06 l-0.06 -0.12 l0.12 0 c0.06 0.06 0.06 0.12 0.06 0.18 z M39.3 45.72 c0.06 0 0.06 -0.06 0.06 -0.18 c-0.06 -0.12 -0.12 -0.18 -0.18 -0.18 l-0.06 0.06 l-0.06 0.18 c0.06 0.06 0.12 0.12 0.24 0.12 z M19.14 46.019999999999996 l0.06 -0.06 l-0.06 -0.18 l-0.06 0 l0 0.12 z M0.48 46.26 c0 0 0 -0.12 -0.12 -0.24 c0 -0.06 -0.06 -0.06 -0.06 -0.06 l0.06 0.12 c0 0.12 0.06 0.18 0.06 0.18 l0.06 0 z M40.02 48.3 c0.06 0 0.12 0 0.12 -0.06 l-0.12 -0.42 c0 -0.24 0.18 -0.48 0.42 -0.48 c0.06 0 0.06 0 0.06 -0.06 l-0.12 -0.06 c-0.12 -0.06 -0.18 -0.12 -0.18 -0.18 l0.12 -0.06 c0.06 -0.06 0.12 -0.18 0.12 -0.3 l0 -0.12 c-0.06 -0.12 -0.06 -0.18 -0.12 -0.18 s-0.12 0.12 -0.24 0.36 c-0.18 0.42 -0.24 0.78 -0.24 1.02 c0 0.12 0 0.24 0.06 0.3 l0 0.06 c0 0.06 -0.06 0.06 -0.12 0.12 l-0.12 0.06 l0.36 0 z M38.94 47.76 c0.06 0 0.12 0 0.12 -0.06 l-0.06 -0.06 c-0.06 -0.12 -0.18 -0.18 -0.24 -0.18 c-0.12 0 -0.12 0.06 -0.12 0.18 c0.06 0.06 0.18 0.12 0.3 0.12 z M39.78 49.2 c0.06 0 0.12 -0.12 0.12 -0.24 l0 -0.3 c-0.06 0 -0.12 0.06 -0.18 0.18 l-0.06 0.24 c0 0.06 0 0.12 0.12 0.12 z M41.52 50.34 c0.06 0 0.06 -0.06 0.06 -0.18 c0 -0.18 -0.06 -0.36 -0.12 -0.6 l-0.18 -0.6 c-0.06 0 -0.06 0.06 -0.12 0.18 l-0.06 0.24 c0 0.3 0.12 0.66 0.24 0.9 c0 0.06 0.12 0.06 0.18 0.06 z M38.1 49.44 l0.12 -0.06 c0.06 0 0.06 -0.06 0.06 -0.12 s0 -0.12 -0.06 -0.12 c-0.06 -0.12 -0.06 -0.12 -0.12 -0.12 l-0.12 0.06 l-0.06 0.18 c0 0.12 0.06 0.18 0.18 0.18 z M4.14 49.32 l0 -0.06 l-0.06 -0.18 l-0.06 0 l0 0.12 c0.06 0.12 0.12 0.12 0.12 0.12 z M38.94 49.32 c0 -0.06 0 -0.18 -0.06 -0.24 l-0.06 0 l-0.06 0.06 l0.06 0.06 c0 0.12 0.06 0.12 0.12 0.12 z M40.26 49.92 l0.12 -0.12 c0 -0.12 -0.06 -0.18 -0.12 -0.18 c-0.12 0 -0.12 0.06 -0.12 0.18 z M41.1 50.64 l0.12 -0.12 c0 -0.12 0 -0.18 -0.06 -0.18 l-0.12 0.18 c0 0.06 0 0.12 0.06 0.12 z M5.46 51.480000000000004 l-0.12 -0.18 c-0.06 -0.18 -0.06 -0.42 -0.06 -0.54 c0.06 -0.06 0.06 -0.12 0.12 -0.12 l0.06 0.12 l0 0.72 z M41.28 51.42 c0.12 0 0.3 -0.24 0.3 -0.48 c0 -0.06 0 -0.12 -0.06 -0.18 c0 -0.06 0 -0.06 -0.06 -0.06 c0 0 -0.06 0.06 -0.06 0.24 s0 0.24 -0.06 0.24 l-0.18 -0.18 c-0.06 -0.12 -0.12 -0.18 -0.18 -0.18 l0 0.18 c0.06 0.18 0.12 0.36 0.24 0.42 l0.06 0 z M40.08 51.42 l0.18 -0.12 c0.06 -0.06 0.12 -0.12 0.12 -0.18 l0 -0.06 l-0.12 0 c-0.12 0 -0.24 0.12 -0.24 0.24 z M20.64 51.18 l-0.06 -0.06 c0 -0.06 -0.06 -0.06 -0.06 -0.06 l-0.12 0.06 c0 0.06 0.06 0.06 0.12 0.06 l0.12 0 z M39.66 51.3 c0 -0.06 0 -0.12 -0.06 -0.18 c-0.06 0 -0.06 -0.06 -0.06 -0.06 l-0.06 0.06 l0.12 0.18 l0.06 0 z M39.72 51.9 c0 -0.06 0 -0.18 -0.12 -0.3 c0 -0.06 -0.06 -0.06 -0.06 -0.06 l0 0.18 l0.12 0.18 l0.06 0 z M39.3 51.78 l0.12 -0.06 l-0.06 -0.06 l-0.18 0 l0 0.06 z M41.28 52.019999999999996 c0.12 0 0.18 -0.06 0.18 -0.06 l0 -0.06 c-0.06 -0.12 -0.24 -0.18 -0.3 -0.18 c-0.12 0 -0.24 0.06 -0.24 0.12 c0 0.12 0.18 0.18 0.36 0.18 z M41.4 52.92 l0.12 -0.06 l0 -0.06 c0 -0.06 -0.12 -0.18 -0.24 -0.3 c-0.12 -0.06 -0.12 -0.12 -0.18 -0.12 l0.06 0.24 c0.06 0.18 0.18 0.3 0.24 0.3 z M41.1 53.34 c0 -0.06 0 -0.18 -0.06 -0.24 l-0.06 0 l-0.06 0.06 l0.06 0.06 c0 0.12 0.06 0.12 0.12 0.12 z M41.16 54.54 c0.06 0 0.06 -0.12 0.06 -0.24 c-0.06 -0.12 -0.18 -0.24 -0.24 -0.24 s-0.06 0.06 -0.06 0.12 l0 0.12 c0.06 0.12 0.12 0.24 0.24 0.24 z M41.04 55.8 c0.06 -0.06 0.12 -0.18 0.12 -0.3 l-0.06 -0.12 l-0.06 0 c-0.12 0.06 -0.18 0.18 -0.18 0.3 c0 0.06 0.06 0.12 0.18 0.12 z M40.92 56.1 l0.12 -0.06 l0 -0.06 l-0.24 0 l-0.06 0.06 c0 0.06 0.06 0.06 0.18 0.06 z M40.8 57.96 c0.06 0 0.12 -0.12 0.24 -0.36 l0.18 -0.36 l-0.3 -0.06 l-0.06 -0.06 l-0.06 0.06 c-0.12 0 -0.12 0.12 -0.12 0.36 c0 0.3 0.06 0.42 0.12 0.42 z M40.98 59.4 c0.06 0 0.12 -0.12 0.18 -0.3 l0.06 -0.18 l-0.06 -0.12 c-0.06 0 -0.18 0.18 -0.24 0.3 c0 0.18 0 0.3 0.06 0.3 z"></path></g>
</svg>